<?xml version="1.0" encoding="UTF-8" standalone="no"?>
<!-- Created with Inkscape (http://www.inkscape.org/) -->
<svg
   xmlns:svg="http://www.w3.org/2000/svg"
   xmlns="http://www.w3.org/2000/svg"
   version="1.0"
   width="32"
   height="32"
   id="svg26253">
  <defs
     id="defs26255" />
  <g
     id="layer1">
    <path
       d="M 30.814714,4.4959331 L 21.693834,4.4959331 L 15.767832,0.53078707 L 9.8401817,4.4959331 L 0.75696255,4.4959331 L 1.5651662,7.6515009 L 14.189361,7.6515009 L 14.189361,14.001947 C 13.303361,13.925525 12.573229,14.078369 11.841722,13.962911 C 10.687146,13.771032 9.5705056,11.885223 7.8779513,10.807344 C 6.1840225,9.7294639 2.373095,10.807344 2.373095,10.807344 C 2.373095,10.807344 2.1812153,11.116055 2.1812153,11.461054 C 2.1812153,11.807427 1.1423712,12.462237 1.1423712,12.462237 C 1.1423712,12.462237 2.1047934,12.347054 2.7208425,12.423476 C 3.2981308,12.462237 3.1046017,13.000489 3.1046017,13.000489 C 3.1046017,13.000489 3.1436374,13.925525 3.1046017,14.385981 C 3.0672154,14.809876 3.4900104,15.926791 3.4900104,15.926791 C 3.4900104,15.926791 2.373095,17.580585 2.9517578,17.889297 C 3.5664324,18.196634 4.5288544,18.081176 4.5288544,17.580585 C 4.5288544,17.081093 4.7988054,16.310551 5.5303122,16.310551 C 6.2604444,16.349586 6.8000716,15.463586 7.4537818,15.463586 C 8.0698309,15.463586 7.9543733,16.541466 7.9543733,16.541466 C 7.9543733,16.541466 8.0307952,18.004754 7.9543733,19.274514 C 7.8389156,20.544273 5.5676985,20.313358 4.7221086,20.274322 C 3.8751442,20.236936 3.7973477,21.583117 3.7973477,21.583117 C 3.7973477,21.583117 3.8363834,23.4692 3.7973477,24.431347 C 3.7596865,25.431431 4.5678901,25.777804 4.5678901,25.777804 L 7.1074089,25.777804 L 7.1074089,24.200707 C 7.1074089,24.200707 6.0685648,24.238093 5.8764103,23.815298 C 5.3758188,22.737418 6.2994801,21.92949 6.2994801,21.92949 C 6.2994801,21.92949 9.3019291,21.968525 9.7247241,21.92949 C 10.186554,21.891829 10.262976,20.274322 10.262976,20.274322 L 12.379975,20.1979 C 12.379975,20.1979 12.919602,20.813949 14.073904,21.044864 L 14.189361,21.082526 L 14.189361,28.164478 L 1.5651662,28.164478 L 1.5651662,31.320046 L 29.969124,31.320046 L 29.969124,28.164478 L 17.344929,28.164478 L 17.344929,20.313358 L 19.731604,20.274322 C 19.731604,20.274322 19.692568,20.890646 19.923484,21.391237 C 20.19206,21.891829 21.308701,21.92949 21.308701,21.92949 L 24.272389,21.92949 L 24.272389,24.046214 C 24.272389,24.77772 25.311507,25.470466 25.311507,25.470466 L 27.58245,25.470466 L 27.620111,24.200707 C 27.620111,24.200707 27.043097,24.200707 26.350352,23.815298 C 25.657606,23.430164 26.774521,21.92949 26.735485,21.006104 C 26.696724,20.043682 25.272472,20.352393 24.464543,20.274322 C 23.656339,20.1979 23.887255,18.773647 24.272389,18.350852 C 24.657797,17.889297 24.156931,16.811417 24.425507,15.733537 C 24.657797,14.616622 27.043097,14.579235 27.620111,14.733454 C 28.197399,14.886573 27.389196,16.811417 27.389196,16.811417 C 27.389196,16.811417 28.428315,16.465044 28.928906,15.618079 C 29.77587,14.155066 29.31404,13.039525 28.275196,12.61673 C 27.236352,12.153525 26.812182,13.154983 26.812182,13.154983 L 23.656339,14.733454 C 23.656339,14.733454 23.194509,14.193827 21.308701,13.847729 C 19.422892,13.501356 17.344929,14.733454 17.344929,14.733454 L 17.344929,7.6515009 L 29.969124,7.6515009 L 30.814714,4.4959331 z M 5.4912765,13.231405 C 5.4912765,13.577778 5.2216004,13.808693 4.9139882,13.808693 C 4.5678901,13.808693 4.2979391,13.577778 4.2979391,13.231405 C 4.2979391,12.924067 4.5678901,12.654391 4.9139882,12.654391 C 5.2216004,12.654391 5.4912765,12.924067 5.4912765,13.231405 z"
       id="path240386"
       style="fill:#000000;fill-opacity:1;fill-rule:evenodd;stroke:none" />
  </g>
</svg>
