<?xml version="1.0" encoding="UTF-8" standalone="no"?>
<!-- Created with Inkscape (http://www.inkscape.org/) -->
<svg
   xmlns:svg="http://www.w3.org/2000/svg"
   xmlns="http://www.w3.org/2000/svg"
   version="1.0"
   width="32"
   height="32"
   id="svg26253">
  <defs
     id="defs26255" />
  <g
     id="layer1" />
  <path
     d="M 15.985226,31.730637 C 24.566308,31.730637 31.522631,24.774369 31.522631,16.193312 C 31.522631,7.6122566 24.566308,0.65598792 15.985226,0.65598792 C 7.404251,0.65598792 0.4479282,7.6122566 0.4479282,16.193312 C 0.4479282,24.774369 7.404251,31.730637 15.985226,31.730637 z"
     id="path297676"
     style="fill:#000000;fill-opacity:1;fill-rule:nonzero;stroke:none" />
  <path
     d="M 8.4430965,23.660463 C 9.2856624,24.451977 10.383534,24.937054 11.455894,25.345593 C 12.528255,25.754052 13.626099,25.983849 14.749457,25.983849 L 14.749457,29.02213 L 17.123892,29.02213 L 17.123892,25.83067 C 20.443127,25.01359 22.485663,23.175389 22.485663,19.600873 C 22.485663,16.051869 19.855841,14.979563 16.945254,14.009412 C 16.051611,13.702972 14.443099,13.192332 14.443099,12.017843 C 14.443099,10.996614 15.489919,10.588075 16.613331,10.588075 C 17.813304,10.588075 18.962308,11.098743 19.881407,11.83918 L 21.770767,8.1369965 C 20.392049,7.243381 18.732485,6.8093561 17.123892,6.6561771 L 17.123892,3.5668434 L 14.749457,3.5668434 L 14.749457,6.6561771 C 11.634639,6.8604057 9.5409427,9.643382 9.5409427,12.656178 C 9.5409427,15.771077 11.557996,16.919999 13.549483,17.660463 C 15.566455,18.400818 17.558024,18.65618 17.558024,20.085948 C 17.558024,21.336973 16.230276,21.949742 15.157996,21.949742 C 13.523997,21.949742 11.711175,20.903027 10.536685,19.805102 L 8.4430965,23.660463 z"
     id="path297680"
     style="fill:#ffffff;fill-opacity:1;fill-rule:nonzero;stroke:none" />
</svg>
