<?xml version="1.0" encoding="UTF-8" standalone="no"?>
<!-- Created with Inkscape (http://www.inkscape.org/) -->
<svg
   xmlns:svg="http://www.w3.org/2000/svg"
   xmlns="http://www.w3.org/2000/svg"
   version="1.0"
   width="32"
   height="32"
   id="svg26253">
  <defs
     id="defs26255" />
  <g
     id="layer1">
    <path
       d="M 28.219825,16.327282 C 28.220838,22.517761 23.202747,27.536673 17.012268,27.536673 C 10.821789,27.536673 5.8036985,22.517761 5.8047113,16.327282 C 5.8036985,10.136803 10.821789,5.1178914 17.012268,5.1178914 C 23.202747,5.1178914 28.220838,10.136803 28.219825,16.327282 L 28.219825,16.327282 z"
       transform="matrix(1.3705179,0,0,1.3705179,-7.4196408,-6.2728087)"
       id="path15898"
       style="opacity:1;fill:#000000;fill-opacity:1;stroke:none;stroke-width:0.40000001;stroke-miterlimit:4;stroke-dasharray:none;stroke-opacity:1" />
    <path
       d="M 8.7517173,1.4136403 C 8.7517173,2.178113 7.5122622,2.7978405 5.9833169,2.7978405 C 4.4543716,2.7978405 3.2149165,2.178113 3.2149165,1.4136403 C 3.2149165,0.64916763 4.4543716,0.029440075 5.9833169,0.029440075 C 7.5122622,0.029440075 8.7517173,0.64916763 8.7517173,1.4136403 L 8.7517173,1.4136403 z"
       transform="matrix(0.8775851,0.7451743,-0.6971973,0.7846063,19.263425,0.8068889)"
       id="path15900"
       style="opacity:1;fill:#ffffff;fill-opacity:1;stroke:none;stroke-width:0.40000001;stroke-miterlimit:4;stroke-dasharray:none;stroke-opacity:1" />
    <path
       d="M 8.7517173,1.4136403 C 8.7517173,2.178113 7.5122622,2.7978405 5.9833169,2.7978405 C 4.4543716,2.7978405 3.2149165,2.178113 3.2149165,1.4136403 C 3.2149165,0.64916763 4.4543716,0.029440075 5.9833169,0.029440075 C 7.5122622,0.029440075 8.7517173,0.64916763 8.7517173,1.4136403 L 8.7517173,1.4136403 z"
       transform="matrix(0.9676376,0.6228892,-0.6216942,0.9692881,12.657125,0.9748835)"
       id="path16672"
       style="opacity:1;fill:#ffffff;fill-opacity:1;stroke:none;stroke-width:0.40000001;stroke-miterlimit:4;stroke-dasharray:none;stroke-opacity:1" />
    <path
       d="M 8.7517173,1.4136403 C 8.7517173,2.178113 7.5122622,2.7978405 5.9833169,2.7978405 C 4.4543716,2.7978405 3.2149165,2.178113 3.2149165,1.4136403 C 3.2149165,0.64916763 4.4543716,0.029440075 5.9833169,0.029440075 C 7.5122622,0.029440075 8.7517173,0.64916763 8.7517173,1.4136403 L 8.7517173,1.4136403 z"
       transform="matrix(0.6927313,0.9190781,-0.9183105,0.6945937,21.321998,5.4647502)"
       id="path16674"
       style="opacity:1;fill:#ffffff;fill-opacity:1;stroke:none;stroke-width:0.40000001;stroke-miterlimit:4;stroke-dasharray:none;stroke-opacity:1" />
  </g>
</svg>
