<?xml version="1.0" encoding="UTF-8" standalone="no"?>
<!-- Created with Inkscape (http://www.inkscape.org/) -->
<svg
   xmlns:svg="http://www.w3.org/2000/svg"
   xmlns="http://www.w3.org/2000/svg"
   version="1.0"
   width="32"
   height="24"
   id="svg26253">
  <defs
     id="defs26255" />
  <g
     id="layer1">
    <rect
       width="30.3631"
       height="13.529441"
       x="0.84838074"
       y="5.9607458"
       id="rect60206"
       style="opacity:1;fill:#ffffff;fill-opacity:1;stroke:none;stroke-width:1;stroke-linecap:round;stroke-miterlimit:4;stroke-dasharray:none;stroke-opacity:1" />
    <g
       transform="matrix(3.8690777,0,0,-3.8690777,18.746094,5.9412351)"
       id="g15651">
      <path
         d="M 0,0 C 0.629,0 1.174,-0.342 1.475,-0.846 L 3.248,-0.848 L 3.248,0.104 C 3.248,0.457 2.961,0.744 2.607,0.744 L -4.004,0.744 C -4.357,0.744 -4.643,0.457 -4.643,0.104 L -4.641,-0.84 L -1.475,-0.842 C -1.172,-0.34 -0.629,0 0,0"
         id="path15653"
         style="fill:#231f20;fill-opacity:1;fill-rule:nonzero;stroke:none" />
    </g>
    <g
       transform="matrix(3.8690777,0,0,-3.8690777,7.1996222,1.8945513)"
       id="g15655">
      <path
         d="M 0,0 L -0.588,0 L -0.656,-0.212 L 0.049,-0.212 L 0,0 z"
         id="path15657"
         style="fill:#231f20;fill-opacity:1;fill-rule:nonzero;stroke:none" />
    </g>
    <g
       transform="matrix(3.8690777,0,0,-3.8690777,27.716226,1.4565408)"
       id="g15659">
      <path
         d="M 0,0 L -0.783,0 L -0.922,-0.327 L 0.127,-0.327 L 0,0 z"
         id="path15661"
         style="fill:#231f20;fill-opacity:1;fill-rule:nonzero;stroke:none" />
    </g>
    <path
       d="M 19.707576,0.51558106 L 12.344721,0.51558106 L 10.828043,2.7364317 L 21.096575,2.7364317 L 19.707576,0.51558106 z"
       id="path15663"
       style="fill:#231f20;fill-opacity:1;fill-rule:nonzero;stroke:none" />
    <g
       transform="matrix(3.8690777,0,0,-3.8690777,24.80702,9.8710416)"
       id="g15665">
      <path
         d="M 0,0 C 0.098,-0.216 0.156,-0.454 0.156,-0.707 C 0.156,-1.658 -0.615,-2.43 -1.566,-2.43 C -2.518,-2.43 -3.289,-1.658 -3.289,-0.707 C -3.289,-0.454 -3.232,-0.216 -3.133,0.001 L -6.209,0.001 L -6.209,-2.595 C -6.209,-2.947 -5.924,-3.234 -5.57,-3.234 L 1.041,-3.234 C 1.395,-3.234 1.682,-2.947 1.682,-2.595 L 1.684,0 L 0,0 z"
         id="path15667"
         style="fill:#231f20;fill-opacity:1;fill-rule:nonzero;stroke:none" />
    </g>
    <g
       transform="matrix(3.8690777,0,0,-3.8690777,22.381108,10.415004)"
       id="g15669">
      <path
         d="M 0,0 C -0.027,0.048 -0.061,0.093 -0.098,0.136 C -0.299,0.378 -0.6,0.536 -0.939,0.536 C -1.279,0.536 -1.58,0.379 -1.781,0.138 C -1.818,0.094 -1.852,0.049 -1.881,0 C -1.982,-0.166 -2.043,-0.358 -2.043,-0.566 C -2.043,-1.175 -1.549,-1.668 -0.939,-1.668 C -0.332,-1.668 0.162,-1.175 0.162,-0.566 C 0.162,-0.358 0.102,-0.166 0,0"
         id="path15671"
         style="fill:#231f20;fill-opacity:1;fill-rule:nonzero;stroke:none" />
    </g>
    <path
       d="M 17.316486,2.2837496 L 14.708727,2.2837496 L 14.708727,1.0224303 L 17.316486,1.0224303 L 17.316486,2.2837496 z"
       id="path60210"
       style="fill:#ffffff;fill-opacity:1;fill-rule:nonzero;stroke:none" />
  </g>
</svg>
