<?xml version="1.0" encoding="UTF-8" standalone="no"?>
<!-- Created with Inkscape (http://www.inkscape.org/) -->
<svg
   xmlns:svg="http://www.w3.org/2000/svg"
   xmlns="http://www.w3.org/2000/svg"
   version="1.0"
   width="32"
   height="18"
   id="svg26253">
  <defs
     id="defs26255" />
  <g
     id="layer1">
    <path
       d="M 5.7602878,13.736395 L 5.7602878,15.312502 C 5.7602878,16.184278 5.0559566,16.880635 4.1948121,16.880635 C 3.328352,16.880635 2.6293365,16.184278 2.6293365,15.312502 L 2.6293365,13.736395 L 1.0372825,13.736395 L 1.0372825,8.6067375 L 1.0372825,8.6014215 C 1.0372825,7.4798078 1.7921128,6.5415855 2.8180441,6.2598528 L 4.6519629,1.8956579 C 4.9204061,1.2551153 5.5503173,0.80328022 6.2838849,0.80328022 L 15.676738,0.80328022 C 16.412963,0.80328022 17.048191,1.2551153 17.311318,1.8956579 L 19.145237,6.2598528 C 20.173826,6.5415855 20.931314,7.4798078 20.931314,8.6014215 L 20.925999,8.6067375 L 20.925999,13.736395 L 19.331287,13.736395 L 19.33926,15.312502 C 19.33926,16.184278 18.634929,16.880635 17.773785,16.880635 C 16.904667,16.880635 16.202993,16.184278 16.202993,15.312502 L 16.208309,13.736395 L 5.7602878,13.736395 z"
       id="path230695"
       style="fill:#231f20;fill-opacity:1;fill-rule:nonzero;stroke:none" />
    <path
       d="M 17.574445,6.1721439 L 15.998339,2.4033079 C 15.93455,2.2172582 15.751158,2.0790498 15.533214,2.0790498 L 6.427409,2.0790498 C 6.2174385,2.0790498 6.0340466,2.2172582 5.9649425,2.4033079 L 4.3941512,6.1721439 L 17.574445,6.1721439 z"
       id="path237371"
       style="fill:#ffffff;fill-opacity:1;fill-rule:nonzero;stroke:none" />
    <path
       d="M 19.163842,9.3296735 C 19.163842,8.4472665 18.451537,7.7455925 17.571788,7.7455925 C 16.694696,7.7455925 15.979733,8.4472665 15.979733,9.3296735 C 15.979733,10.204108 16.694696,10.916413 17.571788,10.916413 C 18.451537,10.916413 19.163842,10.204108 19.163842,9.3296735"
       id="path237369"
       style="fill:#ffffff;fill-opacity:1;fill-rule:nonzero;stroke:none" />
    <path
       d="M 4.287837,10.916413 C 5.1649286,10.916413 5.8798911,10.204108 5.8798911,9.3296735 C 5.8798911,8.4472665 5.1649286,7.7455925 4.287837,7.7455925 C 3.4080876,7.7455925 2.6957829,8.4472665 2.6957829,9.3296735 C 2.6957829,10.204108 3.4080876,10.916413 4.287837,10.916413"
       id="path237367"
       style="fill:#ffffff;fill-opacity:1;fill-rule:nonzero;stroke:none" />
    <path
       d="M 22.002269,13.600595 C 22.543331,14.108873 23.248339,14.42037 23.936965,14.682717 C 24.625592,14.945013 25.330583,15.092579 26.051959,15.092579 L 26.051959,17.043641 L 27.576725,17.043641 L 27.576725,14.994214 C 29.708203,14.469518 31.019837,13.2891 31.019837,10.99369 C 31.019837,8.7146625 29.331072,8.0260705 27.462011,7.4030791 C 26.888149,7.2062951 25.855228,6.8783831 25.855228,6.1241737 C 25.855228,5.4683817 26.527453,5.2060344 27.248863,5.2060344 C 28.019437,5.2060344 28.757281,5.5339648 29.347489,6.0094435 L 30.56076,3.6320503 C 29.675403,3.0582068 28.609698,2.7794935 27.576725,2.6811282 L 27.576725,0.69728272 L 26.051959,0.69728272 L 26.051959,2.6811282 C 24.051748,2.8122751 22.707261,4.5993907 22.707261,6.5340866 C 22.707261,8.5343495 24.002531,9.2721405 25.281384,9.7476365 C 26.576602,10.223063 27.855507,10.387046 27.855507,11.305186 C 27.855507,12.108543 27.002881,12.502039 26.314306,12.502039 C 25.265018,12.502039 24.100897,11.829881 23.346687,11.124838 L 22.002269,13.600595 z"
       id="path297680"
       style="fill:#000000;fill-opacity:1;fill-rule:nonzero;stroke:none" />
  </g>
</svg>
