<?xml version="1.0" encoding="UTF-8" standalone="no"?>
<!-- Created with Inkscape (http://www.inkscape.org/) -->
<svg
   xmlns:svg="http://www.w3.org/2000/svg"
   xmlns="http://www.w3.org/2000/svg"
   version="1.0"
   width="32"
   height="18"
   id="svg26253">
  <defs
     id="defs26255" />
  <g
     id="layer1">
    <path
       d="M 6.1175008,13.781047 L 6.1175008,15.357154 C 6.1175008,16.22893 5.4131696,16.925287 4.5520251,16.925287 C 3.685565,16.925287 2.9865495,16.22893 2.9865495,15.357154 L 2.9865495,13.781047 L 1.3944955,13.781047 L 1.3944955,8.6513891 L 1.3944955,8.6460731 C 1.3944955,7.5244594 2.1493258,6.5862371 3.1752571,6.3045044 L 5.0091759,1.9403095 C 5.2776191,1.2997669 5.9075303,0.84793184 6.6410979,0.84793184 L 16.033951,0.84793184 C 16.770176,0.84793184 17.405404,1.2997669 17.668531,1.9403095 L 19.50245,6.3045044 C 20.531039,6.5862371 21.288527,7.5244594 21.288527,8.6460731 L 21.283212,8.6513891 L 21.283212,13.781047 L 19.6885,13.781047 L 19.696473,15.357154 C 19.696473,16.22893 18.992142,16.925287 18.130998,16.925287 C 17.26188,16.925287 16.560206,16.22893 16.560206,15.357154 L 16.565522,13.781047 L 6.1175008,13.781047 z"
       id="path230695"
       style="fill:#231f20;fill-opacity:1;fill-rule:nonzero;stroke:none" />
    <path
       d="M 17.931658,6.2167955 L 16.355552,2.4479595 C 16.291763,2.2619098 16.108371,2.1237014 15.890427,2.1237014 L 6.784622,2.1237014 C 6.5746515,2.1237014 6.3912596,2.2619098 6.3221555,2.4479595 L 4.7513642,6.2167955 L 17.931658,6.2167955 z"
       id="path237371"
       style="fill:#ffffff;fill-opacity:1;fill-rule:nonzero;stroke:none" />
    <path
       d="M 19.521055,9.3743251 C 19.521055,8.4919181 18.80875,7.7902441 17.929001,7.7902441 C 17.051909,7.7902441 16.336946,8.4919181 16.336946,9.3743251 C 16.336946,10.24876 17.051909,10.961065 17.929001,10.961065 C 18.80875,10.961065 19.521055,10.24876 19.521055,9.3743251"
       id="path237369"
       style="fill:#ffffff;fill-opacity:1;fill-rule:nonzero;stroke:none" />
    <path
       d="M 4.64505,10.961065 C 5.5221416,10.961065 6.2371041,10.24876 6.2371041,9.3743251 C 6.2371041,8.4919181 5.5221416,7.7902441 4.64505,7.7902441 C 3.7653006,7.7902441 3.0529959,8.4919181 3.0529959,9.3743251 C 3.0529959,10.24876 3.7653006,10.961065 4.64505,10.961065"
       id="path237367"
       style="fill:#ffffff;fill-opacity:1;fill-rule:nonzero;stroke:none" />
    <path
       d="M 26.16483,0.76778704 C 24.052875,0.76778704 22.334733,2.4859281 22.334734,4.5978827 C 22.334734,5.9436963 23.011882,7.1018893 24.063361,7.78398 L 24.063361,8.9973685 L 24.741388,9.0457988 L 25.41065,9.68257 L 24.808957,10.400616 L 25.661566,11.128307 L 24.886678,11.903195 L 25.709996,12.726513 L 24.848037,13.441878 L 25.626353,14.260752 L 24.91085,15.021956 L 26.682934,16.791305 L 28.232403,15.037103 L 28.232403,7.78398 C 29.285187,7.1021284 29.961031,5.9446917 29.961031,4.5978827 C 29.961031,2.4859283 28.276784,0.76778704 26.16483,0.76778704 z"
       id="path2447"
       style="opacity:1;fill:#000000;fill-opacity:1;stroke:none;stroke-width:0.40000001;stroke-miterlimit:4;stroke-dasharray:none;stroke-opacity:1" />
    <path
       d="M 27.505399,3.3542686 C 27.505696,3.7983659 27.145767,4.1585357 26.70167,4.1585357 C 26.257573,4.1585357 25.897644,3.7983659 25.897941,3.3542686 C 25.897644,2.9101713 26.257573,2.5500015 26.70167,2.5500015 C 27.145767,2.5500015 27.505696,2.9101713 27.505399,3.3542686 L 27.505399,3.3542686 z"
       transform="matrix(1.0846289,0,0,1.0846289,-2.8587719,-0.7430031)"
       id="path2453"
       style="opacity:1;fill:#ffffff;fill-opacity:1;stroke:none;stroke-width:0.40000001;stroke-miterlimit:4;stroke-dasharray:none;stroke-opacity:1" />
  </g>
</svg>
