<?xml version="1.0" encoding="UTF-8" standalone="no"?>
<!-- Created with Inkscape (http://www.inkscape.org/) -->
<svg
   xmlns:svg="http://www.w3.org/2000/svg"
   xmlns="http://www.w3.org/2000/svg"
   version="1.0"
   width="32"
   height="32"
   id="svg26253">
  <defs
     id="defs26255" />
  <g
     id="layer1">
    <path
       d="M 15.551724,7.5662288 C 15.551724,4.0208664 12.67712,1.146262 9.128692,1.146262 C 5.5812861,1.146262 2.7077034,4.0208664 2.7077034,7.5662288 C 2.7077034,11.112102 5.5812861,13.985174 9.128692,13.985174 C 12.67712,13.985174 15.551724,11.112102 15.551724,7.5662288 z"
       id="path21232"
       style="fill:#000000;fill-opacity:1;fill-rule:evenodd;stroke:none" />
    <path
       d="M 30.939823,7.5662288 C 30.939823,4.0208664 28.063686,1.146262 24.516791,1.146262 C 20.968363,1.146262 18.094781,4.0208664 18.094781,7.5662288 C 18.094781,11.112102 20.968363,13.985174 24.516791,13.985174 C 28.063686,13.985174 30.939823,11.112102 30.939823,7.5662288 z"
       id="path21234"
       style="fill:#000000;fill-opacity:1;fill-rule:evenodd;stroke:none" />
    <path
       d="M 28.051425,16.31367 L 5.8111727,16.31367 L 5.8111727,19.458519 L 1.2834281,19.458519 L 1.2834281,23.271061 L 5.8111727,23.271061 L 5.8111727,30.704572 L 28.051425,30.704572 L 28.051425,16.31367 z"
       id="path21236"
       style="fill:#000000;fill-opacity:1;fill-rule:nonzero;stroke:none" />
    <path
       d="M 11.025512,7.5662288 C 11.025512,6.5189676 10.177486,5.6709414 9.128692,5.6709414 C 8.0819416,5.6709414 7.2328937,6.5189676 7.2328937,7.5662288 C 7.2328937,8.614001 8.0819416,9.4620271 9.128692,9.4620271 C 10.177486,9.4620271 11.025512,8.614001 11.025512,7.5662288 z"
       id="path21238"
       style="fill:#ffffff;fill-opacity:1;fill-rule:evenodd;stroke:none" />
    <path
       d="M 26.413611,7.5662288 C 26.413611,6.5189676 25.564563,5.6709414 24.516791,5.6709414 C 23.470552,5.6709414 22.619971,6.5189676 22.619971,7.5662288 C 22.619971,8.614001 23.470552,9.4620271 24.516791,9.4620271 C 25.564563,9.4620271 26.413611,8.614001 26.413611,7.5662288 z"
       id="path21240"
       style="fill:#ffffff;fill-opacity:1;fill-rule:evenodd;stroke:none" />
  </g>
</svg>
