<?xml version="1.0" encoding="UTF-8" standalone="no"?>
<!-- Created with Inkscape (http://www.inkscape.org/) -->
<svg
   xmlns:svg="http://www.w3.org/2000/svg"
   xmlns="http://www.w3.org/2000/svg"
   version="1.0"
   width="32"
   height="32"
   id="svg26253">
  <defs
     id="defs26255" />
  <g
     id="layer1">
    <path
       d="M 20.198305,9.8692828 L 20.195918,4.8732801 L 15.87439,0.79477166 L 11.548991,4.777203 L 11.525834,9.7732061 L 4.8062013,13.593241 L 4.8062013,31.194444 L 12.277274,31.194444 L 12.277274,23.582592 L 15.814032,21.687591 L 19.350789,23.582592 L 19.350789,31.194444 L 26.821076,31.194444 L 26.821076,13.593241 L 20.198305,9.8692828 z"
       id="path21316"
       style="fill:#000000;fill-opacity:1;fill-rule:evenodd;stroke:none" />
    <path
       d="M 13.8337,14.753678 L 17.795544,14.753678 L 17.795544,20.243632 L 13.8337,20.243632 L 13.8337,14.753678 z"
       id="path21318"
       style="fill:#ffffff;fill-opacity:1;fill-rule:evenodd;stroke:none" />
    <path
       d="M 6.5604232,14.753678 L 10.522267,14.753678 L 10.522267,20.243632 L 6.5604232,20.243632 L 6.5604232,14.753678 z"
       id="path21320"
       style="fill:#ffffff;fill-opacity:1;fill-rule:evenodd;stroke:none" />
    <path
       d="M 6.5604232,22.988413 L 10.522267,22.988413 L 10.522267,28.449663 L 6.5604232,28.449663 L 6.5604232,22.988413 z"
       id="path21322"
       style="fill:#ffffff;fill-opacity:1;fill-rule:evenodd;stroke:none" />
    <path
       d="M 25.068033,14.753678 L 25.068033,20.243632 L 21.10501,20.243632 L 21.10501,14.753678 L 25.068033,14.753678 z"
       id="path21324"
       style="fill:#ffffff;fill-opacity:1;fill-rule:evenodd;stroke:none" />
    <path
       d="M 25.068033,22.988413 L 25.068033,28.449663 L 21.10501,28.449663 L 21.10501,22.988413 L 25.068033,22.988413 z"
       id="path21326"
       style="fill:#ffffff;fill-opacity:1;fill-rule:evenodd;stroke:none" />
    <path
       d="M 19.736017,9.8527966 C 19.736017,11.431063 18.456579,12.710501 16.878313,12.710501 C 15.300047,12.710501 14.020609,11.431063 14.020609,9.8527966 C 14.020609,8.2745303 15.300047,6.9950926 16.878313,6.9950926 C 18.456579,6.9950926 19.736017,8.2745303 19.736017,9.8527966 L 19.736017,9.8527966 z"
       transform="matrix(0.9581799,0,0,0.9581799,-0.3412684,-2.4834596)"
       id="path53477"
       style="opacity:1;fill:#ffffff;fill-opacity:1;stroke:none;stroke-width:0.40000001;stroke-miterlimit:4;stroke-dasharray:none;stroke-opacity:1" />
    <path
       d="M 15.687075,5.4680984 L 15.687075,7.0053304 L 17.224307,8.3504084"
       id="path53481"
       style="fill:none;fill-rule:evenodd;stroke:#000000;stroke-width:1.07585108px;stroke-linecap:round;stroke-linejoin:miter;stroke-opacity:1" />
  </g>
</svg>
