<?xml version="1.0" encoding="UTF-8" standalone="no"?>
<!-- Created with Inkscape (http://www.inkscape.org/) -->
<svg
   xmlns:svg="http://www.w3.org/2000/svg"
   xmlns="http://www.w3.org/2000/svg"
   version="1.0"
   width="32"
   height="32"
   id="svg26253">
  <defs
     id="defs26255" />
  <g
     id="layer1" />
  <path
     d="M 8.3816587,28.887112 L 24.008521,28.887112 L 24.008521,28.887112 L 24.008521,28.887112"
     id="path329865"
     style="fill:none;fill-rule:evenodd;stroke:#000000;stroke-width:1.8946104;stroke-linecap:round;stroke-linejoin:round;stroke-miterlimit:4;stroke-dasharray:none;stroke-opacity:1" />
  <path
     d="M 16.276547,28.107475 L 16.276547,17.55978"
     id="path330376"
     style="fill:none;fill-rule:evenodd;stroke:#000000;stroke-width:1.5;stroke-linecap:butt;stroke-linejoin:miter;stroke-miterlimit:4;stroke-dasharray:none;stroke-opacity:1" />
  <path
     d="M 16.439457,18.032239 L 2.4291067,3.2073346 L 30.775629,3.2073346 L 16.439457,18.032239 z"
     id="path330378"
     style="fill:none;fill-opacity:1;fill-rule:evenodd;stroke:#000000;stroke-width:1.5;stroke-linecap:round;stroke-linejoin:round;stroke-miterlimit:4;stroke-dasharray:none;stroke-opacity:1" />
  <path
     d="M 16.199347,17.602591 L 6.8500767,7.7097566 L 25.766045,7.7097566 L 16.199347,17.602591 z"
     id="path330380"
     style="fill:#000000;fill-opacity:1;fill-rule:evenodd;stroke:none;stroke-width:1.5;stroke-linecap:round;stroke-linejoin:round;stroke-miterlimit:4;stroke-dasharray:none;stroke-opacity:1" />
  <path
     d="M 20.718353,10.254661 C 20.718353,11.265738 19.898713,12.085377 18.887636,12.085377 C 17.87656,12.085377 17.05692,11.265738 17.05692,10.254661 C 17.05692,9.2435842 17.87656,8.4239445 18.887636,8.4239445 C 19.898713,8.4239445 20.718353,9.2435842 20.718353,10.254661 z"
     transform="matrix(1.3170732,0,0,1.3170732,-6.6955278,-2.1378162)"
     id="path330382"
     style="opacity:1;fill:#ffffff;fill-opacity:1;stroke:none;stroke-width:1.5;stroke-linecap:round;stroke-linejoin:round;stroke-miterlimit:4;stroke-dasharray:none;stroke-opacity:1" />
</svg>
