<?xml version="1.0" encoding="UTF-8" standalone="no"?>
<!-- Created with Inkscape (http://www.inkscape.org/) -->
<svg
   xmlns:svg="http://www.w3.org/2000/svg"
   xmlns="http://www.w3.org/2000/svg"
   version="1.0"
   width="32"
   height="32"
   id="svg26253">
  <defs
     id="defs26255" />
  <g
     id="layer1">
    <g
       transform="matrix(3.067028,0,0,-3.067028,6.0109585,6.5137092)"
       id="g20687">
      <path
         d="M 0,0 C 0.364,0 0.662,0.295 0.662,0.662 C 0.662,1.027 0.364,1.324 0,1.324 C -0.365,1.324 -0.662,1.027 -0.662,0.662 C -0.662,0.295 -0.365,0 0,0"
         id="path20689"
         style="fill:#231f20;fill-opacity:1;fill-rule:nonzero;stroke:none" />
    </g>
    <path
       d="M 3.2524759,26.230749 C 3.2524759,26.85949 3.7646696,27.371683 4.3934104,27.371683 C 5.0221511,27.371683 5.5343448,26.85949 5.5343448,26.230749 L 5.5343448,16.667756 L 6.4912575,16.667756 L 6.4912575,26.230749 C 6.4912575,26.85949 6.9973172,27.371683 7.6260579,27.371683 C 8.2547987,27.371683 8.7669924,26.85949 8.7669924,26.230749 L 8.7761934,9.7454735 L 9.7208381,9.7454735 L 9.7208381,15.821256 C 9.7208381,17.048067 11.315694,17.048067 11.30956,15.821256 L 11.30956,9.6105243 C 11.30956,8.2640989 10.263703,6.9452769 8.6841826,6.9452769 L 3.2892803,6.9360758 C 1.8508441,6.9360758 0.6945747,8.1168816 0.6945747,9.5737199 L 0.6945747,15.821256 C 0.6945747,17.032732 2.2955632,17.032732 2.2955632,15.821256 L 2.2955632,9.7454735 L 3.261677,9.7454735 L 3.2524759,26.230749 z"
       id="path20693"
       style="fill:#231f20;fill-opacity:1;fill-rule:nonzero;stroke:none" />
    <g
       transform="matrix(3.067028,0,0,-3.067028,17.993298,6.956382)"
       id="g20655">
      <path
         d="M 0,0 C 0.464,0 0.797,-0.382 0.867,-0.59 L 1.436,-2.46 C 1.549,-2.861 1.036,-3.028 0.916,-2.637 L 0.403,-0.921 L 0.108,-0.921 L 0.966,-3.971 L 0.149,-3.971 L 0.149,-6.351 C 0.149,-6.757 -0.462,-6.755 -0.462,-6.351 L -0.462,-3.956 L -0.771,-3.956 L -0.771,-6.346 C -0.771,-6.757 -1.385,-6.757 -1.385,-6.346 L -1.385,-3.971 L -2.204,-3.971 L -1.356,-0.921 L -1.637,-0.921 L -2.148,-2.642 C -2.27,-3.016 -2.787,-2.863 -2.668,-2.46 L -2.101,-0.59 C -2.04,-0.377 -1.77,0 -1.303,0 L 0,0 z"
         id="path20657"
         style="fill:#231f20;fill-opacity:1;fill-rule:nonzero;stroke:none" />
    </g>
    <g
       transform="matrix(3.067028,0,0,-3.067028,16.103411,6.5248634)"
       id="g20659">
      <path
         d="M 0,0 C 0.364,0 0.662,0.297 0.662,0.662 C 0.662,1.029 0.364,1.326 0,1.326 C -0.368,1.326 -0.662,1.029 -0.662,0.662 C -0.662,0.297 -0.368,0 0,0"
         id="path20661"
         style="fill:#231f20;fill-opacity:1;fill-rule:nonzero;stroke:none" />
    </g>
    <g
       transform="matrix(3.067028,0,0,-3.067028,26.207986,6.6870773)"
       id="g60169">
      <path
         d="M 0,0 C 0.364,0 0.662,0.295 0.662,0.662 C 0.662,1.027 0.364,1.324 0,1.324 C -0.365,1.324 -0.662,1.027 -0.662,0.662 C -0.662,0.295 -0.365,0 0,0"
         id="path60171"
         style="fill:#231f20;fill-opacity:1;fill-rule:nonzero;stroke:none" />
    </g>
    <path
       d="M 23.449502,26.404117 C 23.449502,27.032858 23.961697,27.545051 24.590438,27.545051 C 25.219178,27.545051 25.731372,27.032858 25.731372,26.404117 L 25.731372,16.841124 L 26.688285,16.841124 L 26.688285,26.404117 C 26.688285,27.032858 27.194344,27.545051 27.823085,27.545051 C 28.451826,27.545051 28.96402,27.032858 28.96402,26.404117 L 28.973221,9.9188415 L 29.917865,9.9188415 L 29.917865,15.994624 C 29.917865,17.221435 31.51272,17.221435 31.506586,15.994624 L 31.506586,9.7838923 C 31.506586,8.437467 30.460729,7.1186449 28.88121,7.1186449 L 23.486306,7.1094439 C 22.04787,7.1094439 20.891601,8.2902496 20.891601,9.747088 L 20.891601,15.994624 C 20.891601,17.2061 22.492589,17.2061 22.492589,15.994624 L 22.492589,9.9188415 L 23.458703,9.9188415 L 23.449502,26.404117 z"
       id="path60173"
       style="fill:#231f20;fill-opacity:1;fill-rule:nonzero;stroke:none" />
  </g>
</svg>
