<?xml version="1.0" encoding="UTF-8" standalone="no"?>
<!-- Created with Inkscape (http://www.inkscape.org/) -->
<svg
   xmlns:svg="http://www.w3.org/2000/svg"
   xmlns="http://www.w3.org/2000/svg"
   version="1.0"
   width="744.09448"
   height="1052.3622"
   id="svg2">
  <defs
     id="defs4" />
  <g
     id="layer1">
    <path
       d="M -748.39361,-10.678897 C -748.39361,-9.3007242 -749.56162,-8.1834944 -751.00244,-8.1834944 C -752.44326,-8.1834944 -753.61127,-9.3007242 -753.61127,-10.678897 C -753.61127,-12.05707 -752.44326,-13.1743 -751.00244,-13.1743 C -749.56162,-13.1743 -748.39361,-12.05707 -748.39361,-10.678897 L -748.39361,-10.678897 z"
       transform="matrix(1.1499412,0,0,1.2022113,112.99737,1.6547955)"
       id="path2383"
       style="fill:#000000;fill-opacity:1" />
    <path
       d="M 790.95813,492.45154 C 790.95813,695.50022 625.59958,860.1037 421.61948,860.1037 C 217.63937,860.1037 52.280823,695.50022 52.280823,492.45154 C 52.280823,289.40286 217.63937,124.79938 421.61948,124.79938 C 625.59958,124.79938 790.95813,289.40286 790.95813,492.45154 z"
       transform="matrix(0.9476398,0,0,0.9519868,-25.932687,15.99919)"
       id="path2390"
       style="fill:#000000;fill-opacity:1" />
  </g>
</svg>
