<?xml version="1.0" encoding="UTF-8" standalone="no"?>
<!-- Created with Inkscape (http://www.inkscape.org/) -->
<svg
   xmlns:svg="http://www.w3.org/2000/svg"
   xmlns="http://www.w3.org/2000/svg"
   version="1.0"
   width="32"
   height="32"
   id="svg26253">
  <defs
     id="defs26255" />
  <g
     id="layer1" />
  <path
     d="M 15.464032,16.353967 L 15.320377,8.7875901 L 17.83247,8.7875901 C 18.882747,8.7875901 19.062794,9.473486 19.1914,9.6106643 C 19.581504,9.9879069 19.843002,10.210824 20.396004,10.210824 L 23.186742,10.210824 L 23.186742,4.0334763 L 20.396004,4.0334763 C 19.843002,4.0334763 19.581504,3.8062733 19.1914,3.4204571 C 19.062794,3.3047122 18.882747,2.6102429 17.83247,2.6102429 L 13.991454,2.6102429 L 13.991454,16.358526 L 5.1947592,16.363176 L 5.2253898,12.138275 L 1.094701,12.138275 L 0.95104607,28.528257 L 31.256861,28.884247 L 31.256861,12.28193 L 27.400622,12.28193 L 27.4086,16.323301 L 15.464032,16.353967 z"
     id="path218815"
     style="fill:#231f20;fill-opacity:1;fill-rule:nonzero;stroke:none" />
  <rect
     width="3.8786807"
     height="4.4533"
     x="5.0408392"
     y="18.37052"
     id="rect330405"
     style="opacity:1;fill:#ffffff;fill-opacity:1;stroke:none;stroke-width:1.5;stroke-linecap:round;stroke-linejoin:round;stroke-miterlimit:4;stroke-dasharray:none;stroke-opacity:1" />
  <rect
     width="3.8786807"
     height="4.4533"
     x="11.146168"
     y="18.442347"
     id="rect330409"
     style="opacity:1;fill:#ffffff;fill-opacity:1;stroke:none;stroke-width:1.5;stroke-linecap:round;stroke-linejoin:round;stroke-miterlimit:4;stroke-dasharray:none;stroke-opacity:1" />
  <rect
     width="3.8786807"
     height="4.4533"
     x="17.323328"
     y="18.442347"
     id="rect330411"
     style="opacity:1;fill:#ffffff;fill-opacity:1;stroke:none;stroke-width:1.5;stroke-linecap:round;stroke-linejoin:round;stroke-miterlimit:4;stroke-dasharray:none;stroke-opacity:1" />
  <rect
     width="3.8786807"
     height="4.4533"
     x="23.356831"
     y="18.442348"
     id="rect330413"
     style="opacity:1;fill:#ffffff;fill-opacity:1;stroke:none;stroke-width:1.5;stroke-linecap:round;stroke-linejoin:round;stroke-miterlimit:4;stroke-dasharray:none;stroke-opacity:1" />
  <path
     d="M 15.382037,6.4751486 L 17.388955,6.4751486 C 18.439232,6.4751486 18.619279,7.1610445 18.747885,7.2982228 C 19.137989,7.6754654 19.399487,7.8983825 19.952489,7.8983825 L 22.238052,7.8983825 L 22.238052,6.14132 L 19.952489,6.14132 C 19.399487,6.14132 19.137989,5.914117 18.747885,5.528301 C 18.619279,5.412556 18.439232,4.718086 17.388955,4.718086 L 15.442347,4.718086 L 15.382037,6.4751486 z"
     id="path330415"
     style="fill:#ffffff;fill-opacity:1;fill-rule:nonzero;stroke:none" />
</svg>
