<?xml version="1.0" encoding="UTF-8" standalone="no"?>
<!-- Created with Inkscape (http://www.inkscape.org/) -->

<svg
   xmlns:svg="http://www.w3.org/2000/svg"
   xmlns="http://www.w3.org/2000/svg"
   version="1.1"
   width="9.8812504"
   height="8.6850004"
   id="svg11758">
  <defs
     id="defs11760" />
  <g
     transform="translate(-369.87125,-527.74409)"
     id="layer1">
    <g
       transform="matrix(1.25,0,0,-1.25,379.73,530.05159)"
       id="g4270">
      <path
         d="m 0,0 -0.648,-5.102 -2.188,0 L -3.482,0 -0.811,0 -0.281,1.846 0.018,1.762 -0.488,0.002 0,0 z"
         id="path4272"
         style="fill:#231f20;fill-opacity:1;fill-rule:nonzero;stroke:none" />
    </g>
    <g
       transform="matrix(1.25,0,0,-1.25,374.99125,533.76495)"
       id="g4274">
      <path
         d="m 0,0 c 0,0 0.082,0.742 -1.053,0.742 l -1.808,0 C -3.994,0.742 -3.914,0 -3.914,0 L 0,0 z"
         id="path4276"
         style="fill:#231f20;fill-opacity:1;fill-rule:nonzero;stroke:none" />
    </g>
    <g
       transform="matrix(1.25,0,0,-1.25,370.09861,535.49833)"
       id="g4278">
      <path
         d="m 0,0 c 0,0 -0.08,-0.744 1.053,-0.744 l 1.808,0 C 3.996,-0.744 3.914,0 3.914,0 L 0,0 z"
         id="path4280"
         style="fill:#231f20;fill-opacity:1;fill-rule:nonzero;stroke:none" />
    </g>
    <g
       transform="matrix(1.25,0,0,-1.25,374.77875,535.04906)"
       id="g4282">
      <path
         d="M 0,0 C 0.186,0 0.336,0.15 0.336,0.336 0.336,0.52 0.186,0.67 0,0.67 l -3.59,0 C -3.775,0.67 -3.926,0.52 -3.926,0.336 -3.926,0.15 -3.775,0 -3.59,0 L 0,0 z"
         id="path4284"
         style="fill:#231f20;fill-opacity:1;fill-rule:nonzero;stroke:none" />
    </g>
  </g>
</svg>
