<?xml version="1.0" encoding="UTF-8" standalone="no"?>
<!-- Created with Inkscape (http://www.inkscape.org/) -->
<svg
   xmlns:svg="http://www.w3.org/2000/svg"
   xmlns="http://www.w3.org/2000/svg"
   version="1.0"
   width="32"
   height="32"
   id="svg26253">
  <defs
     id="defs26255" />
  <g
     id="layer1">
    <path
       d="M 25.931903,20.533715 C 25.931903,20.517159 25.667002,18.53868 25.667002,18.53868 L 25.667002,9.4120127 C 25.667002,8.4351903 25.348293,7.6404873 24.686041,6.9740958 L 20.455903,2.7687927 C 20.166168,2.7687927 19.359047,3.5717738 19.359047,3.5717738 C 19.359047,3.8656483 21.453421,5.9476045 21.453421,5.9476045 L 21.395474,9.4906551 C 21.395474,10.744796 22.417826,11.767148 23.680245,11.767148 L 24.243159,11.771287 L 24.040345,18.53868 L 24.325941,20.860702 L 25.592499,27.710876 C 25.642168,28.824288 24.623955,29.48654 23.825113,29.48654 C 23.080078,29.48654 22.21915,28.869818 22.21915,28.079254 L 22.235707,16.080067 C 22.235707,14.618973 21.05193,13.435197 19.590836,13.435197 L 17.041164,13.435197 C 17.219144,13.422779 17.227422,5.5750875 17.227422,3.9070391 L 17.227422,3.6007473 C 17.227422,2.1810436 16.068481,1.0262409 14.644638,1.0262409 L 7.2025762,1.0262409 C 5.7787334,1.0262409 4.6197916,2.1810436 4.6197916,3.6007473 L 4.6197916,30.802767 L 17.227422,31.009721 L 17.23984,15.119801 L 19.619809,15.119801 C 20.166168,15.119801 20.609049,15.562683 20.609049,16.109041 L 20.609049,28.079254 C 20.609049,29.685216 22.111534,31.092502 23.825113,31.092502 C 25.439353,31.092502 27.252268,29.805249 27.252268,28.079254 C 27.223295,27.677763 25.931903,20.533715 25.931903,20.533715 M 24.036205,10.678571 C 23.092496,10.471617 22.748952,9.9873448 22.748952,9.5403241 L 22.748952,7.9219446 C 22.748952,7.9219446 23.373953,8.0585342 23.52296,8.099925 C 23.833391,8.1785675 24.027927,8.6504223 24.036205,9.056052 C 24.040345,9.4658207 24.036205,10.678571 24.036205,10.678571"
       id="path10540"
       style="fill:#231f20;fill-opacity:1;fill-rule:nonzero;stroke:none" />
    <path
       d="M 15.356559,9.8755898 C 15.356559,10.272941 15.046128,10.579233 14.644638,10.579233 L 7.2025762,10.579233 C 6.8010856,10.579233 6.4906548,10.272941 6.4906548,9.8755898 L 6.4906548,3.6007473 C 6.4906548,3.2075349 6.8010856,2.8971041 7.2025762,2.8971041 L 14.644638,2.8971041 C 15.046128,2.8971041 15.356559,3.2075349 15.356559,3.6007473 L 15.356559,9.8755898 z"
       id="path16833"
       style="fill:#ffffff;fill-opacity:1;fill-rule:nonzero;stroke:none" />
  </g>
</svg>
