<?xml version="1.0" encoding="UTF-8" standalone="no"?>
<!-- Created with Inkscape (http://www.inkscape.org/) -->
<svg
   xmlns:svg="http://www.w3.org/2000/svg"
   xmlns="http://www.w3.org/2000/svg"
   version="1.0"
   width="32"
   height="32"
   id="svg26253">
  <defs
     id="defs26255" />
  <g
     id="layer1">
    <path
       d="M 13.67523,5.5129367 C 12.384645,5.5129367 11.339886,6.5432355 11.339886,7.8157449 C 11.339886,9.0882543 12.384645,10.118553 13.67523,10.118553 C 14.9622,10.118553 16.006959,9.0882543 16.006959,7.8157449 C 16.006959,6.5432355 14.9622,5.5129367 13.67523,5.5129367"
       id="path16669"
       style="fill:#231f20;fill-opacity:1;fill-rule:nonzero;stroke:none" />
    <path
       d="M 25.514629,10.067942 C 25.424252,9.5690604 25.019362,9.2870839 24.994057,9.2690085 L 11.27843,0.22768455 L 10.00592,2.0749923 C 9.7673249,2.4365007 9.8685472,2.9209219 10.233671,3.1595174 C 10.598794,3.3981129 11.0796,3.3005056 11.318196,2.9353822 L 12.062903,1.8689326 L 23.200975,9.2183973 L 14.076504,10.859645 C 13.429404,10.971713 12.963059,11.615197 13.107662,12.247837 L 15.092343,19.926274 L 8.6683395,29.560471 C 8.2851406,30.218416 8.516506,31.060731 9.1816813,31.440314 C 9.8540869,31.819898 10.703632,31.588533 11.08683,30.930588 C 11.08683,30.930588 17.789195,20.855351 17.814501,20.793894 C 17.814501,20.793894 18.157934,22.189317 18.157934,22.196547 L 17.152941,29.755686 C 17.026413,30.507623 17.539754,31.208949 18.298922,31.335477 C 19.054474,31.46562 19.777491,30.959508 19.904019,30.211186 L 20.941548,22.438757 C 20.974084,22.239928 20.934318,21.802503 20.887322,21.610903 L 18.598974,12.508123 L 24.556632,11.434443 C 25.196501,11.318761 25.626696,10.704196 25.514629,10.067942"
       id="path16671"
       style="fill:#231f20;fill-opacity:1;fill-rule:nonzero;stroke:none" />
  </g>
</svg>
