<?xml version="1.0" encoding="UTF-8" standalone="no"?>
<!-- Created with Inkscape (http://www.inkscape.org/) -->
<svg
   xmlns:svg="http://www.w3.org/2000/svg"
   xmlns="http://www.w3.org/2000/svg"
   version="1.0"
   width="32"
   height="32"
   id="svg26253">
  <defs
     id="defs26255" />
  <g
     id="layer1">
    <path
       d="M 31.296079,28.356774 C 30.40461,27.775922 29.205291,27.039901 29.205291,26.575496 L 29.205291,5.8197389 L 25.564182,5.8197389 L 25.564182,10.46572 L 21.885457,10.46572 L 21.885457,5.8197389 L 18.245454,5.8197389 L 18.245454,10.311933 L 14.412665,10.311933 L 14.412665,1.2888215 L 10.772939,1.2888215 L 10.772939,5.8969091 L 7.2101076,5.8969091 L 7.2101076,1.2888215 L 3.570382,1.2888215 L 3.570382,26.575496 C 3.570382,27.039901 2.3696792,27.775922 1.4782106,28.356774 L 1.4782106,30.099051 L 31.296079,30.099051 L 31.296079,28.356774 z"
       id="path15820"
       style="fill:#000000;fill-opacity:1;fill-rule:evenodd;stroke:none" />
    <path
       d="M 5.8932343,26.575496 L 5.8932343,18.63664 C 5.8932343,17.320043 7.4424481,16.081447 9.2237257,16.081447 C 11.082174,16.081447 12.515217,17.165979 12.515217,18.63664 L 12.515217,26.575496 L 5.8932343,26.575496 z"
       id="path13426"
       style="fill:#ffffff;fill-opacity:1;fill-rule:evenodd;stroke:none" />
  </g>
</svg>
