<?xml version="1.0" encoding="UTF-8" standalone="no"?>
<!-- Created with Inkscape (http://www.inkscape.org/) -->
<svg
   xmlns:svg="http://www.w3.org/2000/svg"
   xmlns="http://www.w3.org/2000/svg"
   version="1.0"
   width="32"
   height="20"
   id="svg26253">
  <defs
     id="defs26255" />
  <g
     id="layer1">
    <path
       d="M 28.996955,14.749629 L 28.996955,19.548166 L 31.527608,19.548166 L 31.527608,12.372594 L 3.1851055,12.372594 L 3.1851055,1.9872151 C 3.1851055,1.291892 2.6312725,0.72593128 1.9278642,0.72593128 C 1.2325411,0.72593128 0.67062303,1.291892 0.67062303,1.9872151 L 0.67062303,19.548166 L 3.1851055,19.548166 L 3.1851055,14.749629 L 28.996955,14.749629 z"
       id="path16839"
       style="fill:#000000;fill-opacity:1;fill-rule:nonzero;stroke:none" />
    <path
       d="M 7.0578936,7.0485209 C 8.3151348,7.0485209 9.3338641,6.0297909 9.3338641,4.7685079 C 9.3338641,3.5112664 8.3151348,2.4925371 7.0578936,2.4925371 C 5.7966098,2.4925371 4.7778806,3.5112664 4.7778806,4.7685079 C 4.7778806,6.0297909 5.7966098,7.0485209 7.0578936,7.0485209"
       id="path16841"
       style="fill:#000000;fill-opacity:1;fill-rule:nonzero;stroke:none" />
    <path
       d="M 31.568034,10.484711 L 31.559949,7.3517139 C 31.551864,6.3531979 30.719093,5.6700019 29.744832,5.5487249 L 11.852389,3.7659487 C 11.816006,3.7578635 11.783665,3.7416932 11.755367,3.7416932 C 11.13281,3.7416932 10.631531,4.2470153 10.631531,4.8614869 L 10.631531,8.2410809 L 5.9542703,8.2410809 C 5.3276709,8.2410809 4.8263915,8.7464029 4.8263915,9.3649169 C 4.8263915,9.9874739 5.3276709,10.484711 5.9542703,10.484711 L 31.568034,10.484711 z"
       id="path16843"
       style="fill:#000000;fill-opacity:1;fill-rule:nonzero;stroke:none" />
  </g>
</svg>
