<?xml version="1.0" encoding="UTF-8" standalone="no"?>
<!-- Created with Inkscape (http://www.inkscape.org/) -->
<svg
   xmlns:svg="http://www.w3.org/2000/svg"
   xmlns="http://www.w3.org/2000/svg"
   version="1.0"
   width="32"
   height="32"
   id="svg26253">
  <defs
     id="defs26255" />
  <g
     id="layer1">
    <path
       d="M 0.35266171,16.010441 C 0.35266171,7.4263621 7.3151774,0.47140595 15.899256,0.47140595 C 24.483335,0.47140595 31.445851,7.4263621 31.445851,16.010441 C 31.445851,24.59452 24.483335,31.557035 15.899256,31.557035 C 7.3151774,31.557035 0.35266171,24.59452 0.35266171,16.010441 z"
       id="path6843" />
    <path
       d="M 15.899256,29.273996 C 23.224639,29.273996 29.166591,23.339604 29.166591,16.006661 C 29.166591,8.6812781 23.224639,2.7468863 15.899256,2.7468863 C 8.5700934,2.7468863 2.624362,8.6812781 2.624362,16.006661 C 2.624362,23.339604 8.5663135,29.273996 15.899256,29.273996 z"
       id="path10500"
       style="fill:#ffffff" />
    <path
       d="M 14.171857,20.761734 L 17.339386,20.754174 L 17.339386,18.297261 C 17.339386,17.624444 17.653115,16.989427 18.480906,16.445126 C 19.316256,15.904605 21.640875,14.789544 21.640875,11.882826 C 21.640875,8.968548 19.19908,6.9652183 17.150392,6.5380933 C 15.097924,6.118528 12.871582,6.3982382 11.295378,8.1256376 C 9.8779275,9.6753832 9.5868777,10.8925 9.5868777,13.595106 L 12.754407,13.595106 L 12.754407,12.967648 C 12.754407,11.535078 12.920721,10.015571 14.973189,9.5922261 C 16.099589,9.3616542 17.150392,9.7169617 17.77407,10.3293 C 18.488465,11.032356 18.496025,12.60478 17.354505,13.379653 L 15.570408,14.589211 C 14.530944,15.269587 14.175637,16.014221 14.175637,17.099043 L 14.175637,20.761734 L 14.171857,20.761734 z"
       id="path6845" />
    <rect
       width="3.2128873"
       height="3.2620254"
       x="14.149176"
       y="22.194309"
       id="rect6847" />
  </g>
</svg>
