<?xml version="1.0" encoding="UTF-8" standalone="no"?>
<!-- Created with Inkscape (http://www.inkscape.org/) -->
<svg
   xmlns:svg="http://www.w3.org/2000/svg"
   xmlns="http://www.w3.org/2000/svg"
   version="1.0"
   width="32"
   height="32"
   id="svg26253">
  <defs
     id="defs26255" />
  <g
     id="layer1">
    <path
       d="M 27.392485,31.212472 C 29.388604,31.212472 30.999561,29.595402 30.999561,27.599283 L 30.999561,4.6087632 C 30.999561,2.6157012 29.388604,0.99557407 27.392485,0.99557407 L 4.4019664,0.99557407 C 2.4089044,0.99557407 0.78877743,2.6157012 0.78877743,4.6087632 L 0.78877743,27.599283 C 0.78877743,29.595402 2.4089044,31.212472 4.4019664,31.212472 L 27.392485,31.212472 z"
       id="path16857"
       style="fill:#231f20;fill-opacity:1;fill-rule:nonzero;stroke:none" />
    <path
       d="M 4.4019664,1.6069428 C 2.7451572,1.6069428 1.4001461,2.9550108 1.4001461,4.6087632 L 1.4001461,27.599283 C 1.4001461,29.253035 2.7451572,30.601103 4.4019664,30.601103 L 27.392485,30.601103 C 29.043181,30.601103 30.388192,29.253035 30.388192,27.599283 L 30.388192,4.6087632 C 30.388192,2.9550108 29.043181,1.6069428 27.392485,1.6069428 L 4.4019664,1.6069428 z"
       id="path16855"
       style="fill:#ffffff;fill-opacity:1;fill-rule:nonzero;stroke:none" />
    <path
       d="M 4.625116,5.5135889 L 11.108681,5.5135889 L 16.008801,19.920492 L 16.066881,19.920492 L 20.701056,5.5135889 L 27.187677,5.5135889 L 27.187677,26.456024 L 22.874472,26.456024 L 22.874472,11.615049 L 22.816392,11.615049 L 17.680895,26.456024 L 14.131899,26.456024 L 8.9964022,11.761777 L 8.9383222,11.761777 L 8.9383222,26.456024 L 4.625116,26.456024 L 4.625116,5.5135889 z"
       id="path16859"
       style="fill:#000000;fill-opacity:1;fill-rule:nonzero;stroke:none" />
  </g>
</svg>
