<?xml version="1.0" encoding="UTF-8" standalone="no"?>
<!-- Created with Inkscape (http://www.inkscape.org/) -->
<svg
   xmlns:svg="http://www.w3.org/2000/svg"
   xmlns="http://www.w3.org/2000/svg"
   version="1.0"
   width="32"
   height="32"
   id="svg26253">
  <defs
     id="defs26255" />
  <g
     id="layer1">
    <path
       d="M 31.669052,30.159103 L 0.43180082,30.159103 L 0.43180082,26.994572 L 1.4858655,26.994572 C 2.46746,26.994572 2.6134394,26.595077 2.6856499,26.086486 L 3.0129347,14.92166 L 1.448981,12.594302 L 7.5229708,12.594302 L 5.9946031,14.92166 L 6.3231859,26.086486 C 6.3953967,26.595077 6.5400772,26.994572 7.5229708,26.994572 L 24.577883,26.994572 C 25.559737,26.994572 25.705457,26.595077 25.777927,26.086486 L 26.104952,14.92166 L 24.577883,12.594302 L 30.650574,12.594302 L 29.08688,14.92166 L 29.414165,26.086486 C 29.486375,26.595077 29.632095,26.994572 30.613949,26.994572 L 31.669052,26.994572 L 31.669052,30.159103 z M 23.742268,7.9040007 L 8.3588457,7.9040007 L 16.0677,3.4308494 L 23.742268,7.9040007 z M 0.7224609,9.9396604 L 31.377354,9.9396604 L 16.032114,1.0666067 L 0.7224609,9.9396604 z M 16.322515,18.085933 L 20.868136,13.684992 L 24.032668,13.684992 L 22.759115,14.958285 C 22.759115,14.958285 22.759115,22.740649 22.759115,23.213913 C 22.759115,23.685619 22.795999,24.267718 23.014189,24.449283 C 23.195494,24.631888 23.269004,24.740982 23.195494,24.958912 C 23.159909,25.177102 22.941978,25.323082 22.686905,25.249573 L 20.83255,25.249573 L 20.213827,25.249573 C 19.960051,25.323082 19.741861,25.177102 19.668352,24.958912 C 19.631468,24.740982 19.705236,24.631888 19.886541,24.449283 C 20.067848,24.267718 20.141356,23.685619 20.141356,23.213913 L 20.141356,17.685139 L 16.322515,21.467355 L 12.504971,17.685139 L 12.504971,23.213913 C 12.504971,23.685619 12.577182,24.267718 12.759786,24.449283 C 12.941351,24.631888 13.013562,24.740982 12.977976,24.958912 C 12.904467,25.177102 12.686277,25.323082 12.431462,25.249573 L 11.813777,25.249573 L 9.9594242,25.249573 C 9.7046096,25.323082 9.4864198,25.177102 9.4495351,24.958912 C 9.3773243,24.740982 9.4495351,24.631888 9.6321389,24.449283 C 9.8503288,24.267718 9.8859148,23.685619 9.8859148,23.213913 C 9.8859148,22.740649 9.8859148,14.958285 9.8859148,14.958285 L 8.6136603,13.684992 L 11.776894,13.684992 L 16.322515,18.085933 z"
       id="path13600"
       style="fill:#000000;fill-opacity:1;fill-rule:evenodd;stroke:none" />
  </g>
</svg>
