<?xml version="1.0" encoding="UTF-8" standalone="no"?>
<!-- Created with Inkscape (http://www.inkscape.org/) -->
<svg
   xmlns:svg="http://www.w3.org/2000/svg"
   xmlns="http://www.w3.org/2000/svg"
   version="1.0"
   width="32"
   height="16"
   id="svg26253">
  <defs
     id="defs26255" />
  <g
     id="layer1">
    <path
       d="M 0.4508212,0.87642606 L 31.698344,0.87642606 L 31.698344,15.298216 L 0.4508212,15.298216 L 0.4508212,0.87642606 z"
       id="path13494"
       style="fill:#000000;fill-opacity:1;fill-rule:nonzero;stroke:none" />
    <path
       d="M 7.5681878,5.1334824 C 7.3031182,4.9165764 6.9305283,4.8088866 6.4485526,4.8088866 L 4.5472751,4.8088866 L 4.5472751,7.6839511 L 6.4485526,7.6839511 C 6.9305283,7.6839511 7.3031182,7.566425 7.5681878,7.3328991 C 7.838006,7.0985253 7.9721519,6.7274617 7.9721519,6.2198779 C 7.9721519,5.7114462 7.838006,5.3495405 7.5681878,5.1334824 z M 9.118243,8.651125 C 8.5353613,9.128182 7.7031817,9.366626 6.6208564,9.366626 L 4.5472751,9.366626 L 4.5472751,12.877654 L 2.5201622,12.877654 L 2.5201622,3.1129835 L 6.7731484,3.1129835 C 7.75355,3.1129835 8.5353613,3.3646555 9.118243,3.8681691 C 9.7012944,4.3716827 9.9928202,5.1509502 9.9928202,6.2066499 C 9.9928202,7.3593552 9.7012944,8.1742366 9.118243,8.651125 z"
       id="path13496"
       style="fill:#ffffff;fill-opacity:1;fill-rule:evenodd;stroke:none" />
    <path
       d="M 11.662097,8.790358 C 11.953623,8.370453 12.430681,7.9556347 13.0931,7.544887 L 13.298474,7.419051 C 13.016106,7.1010692 12.797504,6.7764733 12.642669,6.4450939 C 12.488511,6.113884 12.410669,5.7694461 12.410669,5.4117801 C 12.410669,4.7003488 12.649283,4.1464668 13.126171,3.7489471 C 13.603228,3.3465093 14.221724,3.1460536 14.981149,3.1460536 C 15.674943,3.1460536 16.246462,3.3514275 16.696894,3.7621752 C 17.152244,4.1680048 17.379156,4.6896646 17.379156,5.3256282 C 17.379156,5.8995218 17.242636,6.3657256 16.968408,6.7233916 C 16.699268,7.0810575 16.301918,7.412437 15.776019,7.7170212 L 17.160554,9.426322 C 17.31963,9.196018 17.441226,8.94672 17.525004,8.67775 C 17.61353,8.407763 17.659828,8.1228508 17.664068,7.8230151 L 19.340129,7.8230151 C 19.313503,8.414376 19.172743,9.01303 18.916153,9.618298 C 18.775393,9.957818 18.545089,10.3338 18.227108,10.744547 L 20.002548,12.877654 L 17.710366,12.877654 L 17.034718,12.049545 C 16.708426,12.354299 16.403673,12.579514 16.120457,12.725362 C 15.617113,12.985344 15.036605,13.11542 14.378255,13.116098 C 13.389544,13.116098 12.616043,12.824742 12.059617,12.241691 C 11.503191,11.658809 11.224894,11.011143 11.224894,10.300729 C 11.224894,9.71276 11.370741,9.209246 11.662097,8.790358 z M 14.331788,5.9018961 C 14.411326,6.029428 14.583629,6.2571878 14.848529,6.5843275 C 15.113599,6.3987957 15.304049,6.2414159 15.418353,6.113884 C 15.639329,5.87544 15.749563,5.617154 15.749563,5.3388563 C 15.749563,5.1351783 15.683253,4.9545646 15.550803,4.7956585 C 15.418353,4.6365828 15.217897,4.5572145 14.947909,4.5572145 C 14.780693,4.5572145 14.623313,4.6035127 14.477635,4.6962786 C 14.257338,4.8329684 14.146426,5.0490264 14.146426,5.3454703 C 14.146426,5.5218442 14.208496,5.707376 14.331788,5.9018961 z M 13.497234,11.128839 C 13.762134,11.397979 14.099958,11.532803 14.510706,11.532803 C 14.820377,11.532803 15.111903,11.461745 15.385113,11.320815 C 15.663411,11.175137 15.888627,11.013687 16.060931,10.837313 L 14.272262,8.624669 C 13.800292,8.937732 13.48638,9.214334 13.331544,9.452778 C 13.181627,9.691222 13.106328,9.953748 13.106328,10.241034 C 13.106328,10.563255 13.237083,10.858851 13.497234,11.128839 z"
       id="path13498"
       style="fill:#ffffff;fill-opacity:1;fill-rule:evenodd;stroke:none" />
    <path
       d="M 23.361285,4.8088866 L 23.361285,7.432279 L 25.67314,7.432279 C 26.132729,7.432279 26.477337,7.3791973 26.706623,7.2732033 C 27.113301,7.0878411 27.316131,6.7208477 27.316131,6.1735798 C 27.316131,5.58154 27.119915,5.1840203 26.726465,4.9811903 C 26.506337,4.8660385 26.174957,4.8088866 25.732835,4.8088866 L 23.361285,4.8088866 z M 27.733492,3.3646555 C 28.104386,3.5188131 28.418298,3.7464033 28.67421,4.0470869 C 28.886198,4.2938408 29.054262,4.5678987 29.177723,4.8685823 C 29.301863,5.1682484 29.363086,5.51116 29.363086,5.8952821 C 29.363086,6.3591116 29.246407,6.8161574 29.012034,7.2665893 C 28.778508,7.712103 28.391842,8.028389 27.852714,8.2139208 C 28.303146,8.394534 28.621128,8.652821 28.80666,8.988948 C 28.99711,9.320328 29.091571,9.827912 29.091571,10.512717 L 29.091571,11.168523 C 29.091571,11.614037 29.109718,11.917095 29.144484,12.07617 C 29.197565,12.327842 29.321706,12.513374 29.515547,12.632596 L 29.515547,12.877654 L 27.269832,12.877654 C 27.208441,12.660748 27.163838,12.486749 27.137213,12.354299 C 27.084301,12.080241 27.056149,11.799569 27.051061,11.512961 L 27.037833,10.605483 C 27.029523,9.982748 26.914541,9.567082 26.693395,9.360012 C 26.477337,9.152094 26.068963,9.048644 25.467935,9.048644 L 23.361285,9.048644 L 23.361285,12.877654 L 21.367242,12.877654 L 21.367242,3.1129835 L 26.156811,3.1129835 C 26.841617,3.1262115 27.367516,3.2098195 27.733492,3.3646555 z"
       id="path13500"
       style="fill:#ffffff;fill-opacity:1;fill-rule:evenodd;stroke:none" />
  </g>
</svg>
