<?xml version="1.0" encoding="UTF-8" standalone="no"?>
<!-- Created with Inkscape (http://www.inkscape.org/) -->
<svg
   xmlns:svg="http://www.w3.org/2000/svg"
   xmlns="http://www.w3.org/2000/svg"
   version="1.0"
   width="32"
   height="32"
   id="svg26253">
  <defs
     id="defs26255" />
  <g
     id="layer1">
    <path
       d="M 4.5968418,1.5225772 C 2.936189,1.5225772 1.5830656,2.8726256 1.5830656,4.5363528 L 1.5830656,27.668619 C 1.5830656,29.332346 2.936189,30.682394 4.5968418,30.682394 L 27.729107,30.682394 C 29.389759,30.682394 30.742883,29.332346 30.742883,27.668619 L 30.742883,4.5363528 C 30.742883,2.8726256 29.389759,1.5225772 27.729107,1.5225772 L 4.5968418,1.5225772 z"
       id="path7398"
       style="fill:#ffffff;fill-opacity:1;fill-rule:nonzero;stroke:none" />
    <path
       d="M 27.729107,31.300525 C 29.734191,31.300525 31.357939,29.673702 31.357939,27.668619 L 31.357939,4.5363528 C 31.357939,2.5312695 29.734191,0.90752104 27.729107,0.90752104 L 4.5968418,0.90752104 C 2.5917575,0.90752104 0.96800936,2.5312695 0.96800936,4.5363528 L 0.96800936,27.668619 C 0.96800936,29.673702 2.5917575,31.300525 4.5968418,31.300525 L 27.729107,31.300525 z"
       id="path7400"
       style="fill:#231f20;fill-opacity:1;fill-rule:nonzero;stroke:none" />
    <path
       d="M 18.23879,5.5696473 C 22.138245,5.5696473 25.299635,8.7279617 25.299635,12.627418 C 25.299635,16.52995 22.138245,19.69134 18.23879,19.69134 L 13.693524,19.685189 L 13.693524,26.389302 L 9.6249263,26.389302 L 9.6249263,5.5696473 L 18.23879,5.5696473 z M 18.300294,15.671947 C 20.028603,15.671947 21.427856,14.272694 21.427856,12.550536 C 21.427856,10.819154 20.028603,9.4199002 18.300294,9.4199002 L 13.693524,9.4137492 L 13.693524,15.671947 L 18.300294,15.671947 z"
       id="path7402"
       style="fill:#ffffff;fill-opacity:1;fill-rule:nonzero;stroke:none" />
  </g>
</svg>
