<?xml version="1.0" encoding="UTF-8" standalone="no"?>
<!-- Created with Inkscape (http://www.inkscape.org/) -->
<svg
   xmlns:svg="http://www.w3.org/2000/svg"
   xmlns="http://www.w3.org/2000/svg"
   version="1.0"
   width="32"
   height="32"
   id="svg26253">
  <defs
     id="defs26255" />
  <g
     id="layer1">
    <path
       d="M 4.5968418,1.5225772 C 2.936189,1.5225772 1.5830656,2.8726256 1.5830656,4.5363528 L 1.5830656,27.668619 C 1.5830656,29.332346 2.936189,30.682394 4.5968418,30.682394 L 27.729107,30.682394 C 29.389759,30.682394 30.742883,29.332346 30.742883,27.668619 L 30.742883,4.5363528 C 30.742883,2.8726256 29.389759,1.5225772 27.729107,1.5225772 L 4.5968418,1.5225772 z"
       id="path7398"
       style="fill:#ffffff;fill-opacity:1;fill-rule:nonzero;stroke:none" />
    <path
       d="M 27.729107,31.300525 C 29.734191,31.300525 31.357939,29.673702 31.357939,27.668619 L 31.357939,4.5363528 C 31.357939,2.5312695 29.734191,0.90752104 27.729107,0.90752104 L 4.5968418,0.90752104 C 2.5917575,0.90752104 0.96800936,2.5312695 0.96800936,4.5363528 L 0.96800936,27.668619 C 0.96800936,29.673702 2.5917575,31.300525 4.5968418,31.300525 L 27.729107,31.300525 z"
       id="path7400"
       style="fill:#231f20;fill-opacity:1;fill-rule:nonzero;stroke:none" />
    <path
       d="M 18.441805,9.6791618 C 21.953333,9.6791618 24.800221,12.523278 24.800221,16.034809 C 24.800221,19.549108 21.953333,22.395996 18.441805,22.395996 L 14.348713,22.390456 L 14.348713,28.427629 L 10.684867,28.427629 L 10.684867,9.6791618 L 18.441805,9.6791618 z M 18.49719,18.776461 C 20.053563,18.776461 21.313615,17.516409 21.313615,15.965575 C 21.313615,14.406434 20.053563,13.146381 18.49719,13.146381 L 14.348713,13.140842 L 14.348713,18.776461 L 18.49719,18.776461 z"
       id="path7402"
       style="fill:#ffffff;fill-opacity:1;fill-rule:nonzero;stroke:none" />
    <path
       d="M 6.7021182,9.1870912 L 16.078346,4.4989771 L 26.235925,9.8707748"
       id="path90652"
       style="fill:none;fill-rule:evenodd;stroke:#ffffff;stroke-width:2.5;stroke-linecap:butt;stroke-linejoin:round;stroke-miterlimit:4;stroke-dasharray:none;stroke-opacity:1" />
  </g>
</svg>
