<?xml version="1.0" encoding="UTF-8" standalone="no"?>
<!-- Created with Inkscape (http://www.inkscape.org/) -->
<svg
   xmlns:dc="http://purl.org/dc/elements/1.1/"
   xmlns:cc="http://creativecommons.org/ns#"
   xmlns:rdf="http://www.w3.org/1999/02/22-rdf-syntax-ns#"
   xmlns:svg="http://www.w3.org/2000/svg"
   xmlns="http://www.w3.org/2000/svg"
   xmlns:sodipodi="http://sodipodi.sourceforge.net/DTD/sodipodi-0.dtd"
   xmlns:inkscape="http://www.inkscape.org/namespaces/inkscape"
   width="8.9511642"
   height="10.0254"
   id="svg15365"
   sodipodi:version="0.32"
   inkscape:version="0.46"
   version="1.0"
   sodipodi:docname="pharmacy.svg"
   inkscape:output_extension="org.inkscape.output.svg.inkscape">
  <defs
     id="defs15367">
    <inkscape:perspective
       sodipodi:type="inkscape:persp3d"
       inkscape:vp_x="0 : 526.18109 : 1"
       inkscape:vp_y="0 : 1000 : 0"
       inkscape:vp_z="744.09448 : 526.18109 : 1"
       inkscape:persp3d-origin="372.04724 : 350.78739 : 1"
       id="perspective15373" />
  </defs>
  <sodipodi:namedview
     id="base"
     pagecolor="#ffffff"
     bordercolor="#666666"
     borderopacity="1.0"
     gridtolerance="10000"
     guidetolerance="10"
     objecttolerance="10"
     inkscape:pageopacity="0.0"
     inkscape:pageshadow="2"
     inkscape:zoom="49.058684"
     inkscape:cx="4.4130821"
     inkscape:cy="4.9502001"
     inkscape:document-units="px"
     inkscape:current-layer="layer1"
     showgrid="false"
     inkscape:window-width="839"
     inkscape:window-height="823"
     inkscape:window-x="303"
     inkscape:window-y="49" />
  <metadata
     id="metadata15370">
    <rdf:RDF>
      <cc:Work
         rdf:about="">
        <dc:format>image/svg+xml</dc:format>
        <dc:type
           rdf:resource="http://purl.org/dc/dcmitype/StillImage" />
      </cc:Work>
    </rdf:RDF>
  </metadata>
  <g
     inkscape:label="Layer 1"
     inkscape:groupmode="layer"
     id="layer1"
     transform="translate(-12.667275,-93.063769)">
    <path
       d="M 16.403976,98.155461 C 16.510382,98.242423 16.611411,98.323516 16.711321,98.398023 L 16.716742,98.360209 L 16.967948,98.360209 L 16.967948,98.583908 C 17.052222,98.643316 17.135375,98.693002 17.213735,98.744391 L 17.215347,98.360254 L 17.466555,98.360254 L 17.470318,98.913476 C 18.127256,99.336457 18.507538,99.576241 18.471876,100.2606 C 18.4109,101.09514 17.462746,101.35387 17.469198,101.34899 L 17.46651,101.92425 L 17.215303,101.92425 L 17.215303,99.69779 C 17.140752,99.647566 17.059211,99.593579 16.971667,99.539055 L 16.967904,101.92425 L 16.716697,101.92425 L 16.716159,101.68071 C 16.345554,101.86158 16.219121,102.04746 15.990584,102.36175 C 15.847441,101.44626 16.221854,101.22368 16.717727,100.96279 L 16.716697,99.382873 C 16.153217,99.025751 15.440097,98.529294 14.915551,97.728672 C 14.299114,97.462858 13.725912,97.097672 13.244018,96.670345 L 21.058498,96.671913 C 20.031627,97.685437 18.683119,98.191662 17.079686,98.190541 C 16.84743,98.190586 16.631393,98.185748 16.403976,98.155461 M 14.639523,96.147947 L 12.729775,96.146289 C 12.796173,96.223036 12.89671,96.327874 12.968035,96.404083 L 21.332823,96.401306 C 21.404193,96.32084 21.489497,96.23007 21.555939,96.144676 L 15.481181,96.146244 C 15.481181,94.747552 16.259667,93.950156 17.300204,93.94478 C 18.219638,93.975021 18.589214,94.52233 19.075409,95.470442 C 19.145077,95.606597 19.227737,95.567126 19.168867,95.417486 C 19.131009,95.322952 18.966808,94.940472 19.015419,94.851315 L 19.091583,94.836127 C 19.160713,94.877794 19.314161,95.233212 19.347091,95.321294 C 19.49458,95.794544 19.987855,94.669193 18.922454,93.76212 C 18.487557,93.420724 17.969999,93.124131 17.285016,93.126281 C 16.092241,93.126326 14.638403,93.829234 14.639523,96.147947 M 18.443874,102.77931 L 15.756223,102.77765 C 15.694037,102.85386 15.637362,102.93971 15.594128,103.02501 L 18.615692,103.02667 C 18.567574,102.9316 18.520038,102.86515 18.443874,102.77931 M 16.026292,102.52546 L 18.18187,102.52649 C 17.891729,102.31265 17.492002,102.15965 17.082464,102.15965 C 16.659484,102.15969 16.31697,102.28344 16.026292,102.52546 M 19.100274,94.596836 C 19.051082,94.511533 19.063536,94.411578 19.128365,94.373764 C 19.193732,94.336444 19.286653,94.375377 19.336338,94.460682 C 19.385531,94.546613 19.373076,94.646522 19.307709,94.684336 C 19.24288,94.722194 19.149422,94.682768 19.100274,94.596836 M 15.246237,96.159237 L 14.904216,96.159237 C 14.904216,96.159237 14.795077,94.283532 16.239148,93.591466 C 17.689178,92.939365 18.719364,93.915076 18.719364,93.915076 L 18.507583,94.187341 C 18.507583,94.187341 17.648632,93.29326 16.390401,93.919914 C 15.153317,94.56664 15.246237,96.159237 15.246237,96.159237 M 16.717817,101.23179 C 16.67624,101.25329 16.362892,101.41055 16.2581,101.66659 C 16.2581,101.66659 16.504961,101.50132 16.716249,101.41642 L 16.719475,101.41642 L 16.717817,101.23179 M 17.467137,100.54044 C 17.467137,100.54044 17.755082,100.39017 17.625424,100.07543 C 17.592942,100.01271 17.541151,99.951104 17.470901,99.888515 L 17.467137,100.54044 M 15.946857,98.065273 C 15.740542,98.019844 15.53575,97.962048 15.336962,97.893948 C 16.717772,99.507603 17.718882,99.351556 17.889086,100.11091 C 17.92793,100.32915 17.884696,100.61382 17.476859,100.8261 L 17.469288,101.08327 C 17.469288,101.08327 18.041952,100.92767 18.197013,100.37019 C 18.392038,99.350973 17.335821,99.387174 15.946857,98.065273"
       id="path7"
       style="opacity:1;fill:#000000;fill-opacity:1;stroke:#000000;stroke-width:0.1;stroke-miterlimit:4;stroke-dasharray:none;stroke-opacity:1" />
  </g>
</svg>
