<?xml version="1.0" encoding="UTF-8" standalone="no"?>
<svg
   xmlns:dc="http://purl.org/dc/elements/1.1/"
   xmlns:cc="http://creativecommons.org/ns#"
   xmlns:rdf="http://www.w3.org/1999/02/22-rdf-syntax-ns#"
   xmlns:svg="http://www.w3.org/2000/svg"
   xmlns="http://www.w3.org/2000/svg"
   xmlns:sodipodi="http://sodipodi.sourceforge.net/DTD/sodipodi-0.dtd"
   xmlns:inkscape="http://www.inkscape.org/namespaces/inkscape"
   version="1.0"
   width="180.8875"
   height="179.0125"
   id="svg2"
   sodipodi:version="0.32"
   inkscape:version="0.46"
   inkscape:output_extension="org.inkscape.output.svg.inkscape"
   sodipodi:docname="police.svg">
  <metadata
     id="metadata16817">
    <rdf:RDF>
      <cc:Work
         rdf:about="">
        <dc:format>image/svg+xml</dc:format>
        <dc:type
           rdf:resource="http://purl.org/dc/dcmitype/StillImage" />
      </cc:Work>
    </rdf:RDF>
  </metadata>
  <sodipodi:namedview
     inkscape:window-height="667"
     inkscape:window-width="642"
     inkscape:pageshadow="2"
     inkscape:pageopacity="0.0"
     guidetolerance="10.0"
     gridtolerance="10.0"
     objecttolerance="10.0"
     borderopacity="1.0"
     bordercolor="#666666"
     pagecolor="#ffffff"
     id="base"
     showgrid="false"
     inkscape:zoom="2.4166667"
     inkscape:cx="99.413793"
     inkscape:cy="96"
     inkscape:window-x="673"
     inkscape:window-y="318"
     inkscape:current-layer="svg2" />
  <defs
     id="defs5">
    <inkscape:perspective
       sodipodi:type="inkscape:persp3d"
       inkscape:vp_x="0 : 96 : 1"
       inkscape:vp_y="0 : 1000 : 0"
       inkscape:vp_z="198 : 96 : 1"
       inkscape:persp3d-origin="99 : 64 : 1"
       id="perspective16819" />
  </defs>
  <path
     d="M 64.7875,0.85000002 L 64.7875,45.1 L 26.475,22.975 L 0.85000002,67.38125 L 39.1625,89.475 L 0.85000002,111.6 L 26.475,156.0375 L 64.7875,133.9125 L 64.7875,178.1625 L 116.1,178.1625 L 116.1,133.94375 L 154.38125,156.0375 L 180.0375,111.6 L 141.725,89.50625 L 180.0375,67.38125 L 154.38125,22.975 L 116.1,45.06875 L 116.1,0.85000002 L 64.7875,0.85000002 z"
     id="rect13822"
     style="opacity:1;fill:#000000;fill-opacity:1;fill-rule:nonzero;stroke:#ffffff;stroke-width:1.70000005;stroke-linecap:round;stroke-linejoin:miter;stroke-miterlimit:4;stroke-dasharray:none;stroke-dashoffset:0;stroke-opacity:1" />
  <path
     d="M 67.94375,4.00625 L 67.94375,50.5375 L 27.63125,27.25625 L 5.13125,66.225 L 45.44375,89.50625 L 5.13125,112.75625 L 27.63125,151.725 L 67.94375,128.44375 L 67.94375,175.00625 L 112.94375,175.00625 L 112.94375,128.475 L 153.225,151.725 L 175.725,112.75625 L 135.4125,89.50625 L 175.725,66.225 L 153.225,27.25625 L 112.94375,50.50625 L 112.94375,4.00625 L 67.94375,4.00625 z"
     id="rect14795"
     style="opacity:1;fill:#000000;fill-opacity:1;fill-rule:nonzero;stroke:#ffffff;stroke-width:1.70000005;stroke-linecap:round;stroke-linejoin:miter;stroke-miterlimit:4;stroke-dasharray:none;stroke-dashoffset:0;stroke-opacity:1" />
</svg>
