<?xml version="1.0" encoding="UTF-8" standalone="no"?>
<!-- Created with Inkscape (http://www.inkscape.org/) -->
<svg
   xmlns:svg="http://www.w3.org/2000/svg"
   xmlns="http://www.w3.org/2000/svg"
   version="1.0"
   width="32"
   height="32"
   id="svg26253">
  <defs
     id="defs26255" />
  <g
     id="layer1">
    <path
       d="M 1.3443189,26.85089 L 30.680782,26.85089 L 30.680782,4.594614 L 1.3443189,4.594614 L 1.3443189,26.85089 z M 27.079299,6.6706757 L 17.722138,16.020395 C 16.76596,16.980295 15.065673,16.957971 14.090891,15.98691 L 4.7895396,6.6706757 L 27.079299,6.6706757 z M 3.409219,8.1216865 L 11.006562,15.737633 L 3.3943368,23.35358 L 3.409219,8.1216865 z M 4.7783779,24.800872 L 12.398045,17.192365 L 12.725453,17.504891 C 14.526194,19.220059 17.38729,19.220059 19.10618,17.504891 L 19.433588,17.177482 L 27.097901,24.800872 L 4.7783779,24.800872 z M 28.537751,23.35358 L 20.932966,15.737633 L 28.537751,8.1216865 L 28.537751,23.35358 z"
       id="path16827"
       style="fill:#231f20;fill-opacity:1;fill-rule:nonzero;stroke:none" />
  </g>
</svg>
