<?xml version="1.0" encoding="UTF-8" standalone="no"?>
<!-- Created with Inkscape (http://www.inkscape.org/) -->
<svg
   xmlns:svg="http://www.w3.org/2000/svg"
   xmlns="http://www.w3.org/2000/svg"
   version="1.0"
   width="32"
   height="32"
   id="svg26253">
  <defs
     id="defs26255" />
  <g
     id="layer1">
    <path
       d="M 13.526094,10.65348 C 13.526094,11.657496 12.614401,12.726908 11.429585,12.726908 L 11.429585,29.660547 C 11.429585,32.060953 8.1482594,32.060953 8.1482594,29.660547 L 8.1482594,12.726908 C 6.9942175,12.726908 5.9902013,11.838296 5.9902013,10.503454 L 5.9902013,1.1864905 C 5.9902013,0.37481448 7.163477,0.34019323 7.163477,1.2172649 L 7.163477,8.1068939 L 8.1444126,8.1068939 L 9.2792202,8.1068939 L 9.1907437,8.1068939 L 9.1907437,1.1634096 C 9.1907437,0.3863549 10.287083,0.35558045 10.287083,1.1941841 L 10.287083,8.1068939 L 12.383592,8.1068939 L 12.383592,1.1634096 C 12.383592,0.39789532 13.526094,0.36712087 13.526094,1.1941841 L 13.526094,10.65348 L 13.526094,10.65348 z"
       id="path7179" />
    <path
       d="M 23.800911,3.3560889 L 23.800911,29.652853 C 23.800911,32.003251 20.515739,31.972477 20.515739,29.652853 L 20.515739,19.224163 L 18.769289,19.224163 L 18.769289,3.3560889 C 18.769289,-0.33299776 23.800911,-0.33299776 23.800911,3.3560889 z"
       id="path7181" />
  </g>
</svg>
