<?xml version="1.0" encoding="UTF-8" standalone="no"?>
<!-- Created with Inkscape (http://www.inkscape.org/) -->
<svg
   xmlns:svg="http://www.w3.org/2000/svg"
   xmlns="http://www.w3.org/2000/svg"
   version="1.0"
   width="32"
   height="32"
   id="svg26253">
  <defs
     id="defs26255" />
  <g
     id="layer1">
    <rect
       width="30.778465"
       height="18.551403"
       x="0.7144264"
       y="0.74386603"
       id="rect61752"
       style="opacity:1;fill:#000000;fill-opacity:1;stroke:none;stroke-width:10;stroke-miterlimit:4;stroke-dasharray:none;stroke-opacity:1" />
    <path
       d="M 10.877748,3.2487722 C 9.5446,3.2487698 8.4433543,4.3500199 8.4433543,5.6831659 C 8.4433521,7.0208185 9.5463255,8.1175593 10.877748,8.1175593 C 12.206919,8.1175626 13.238373,7.0216753 13.238373,5.6831659 C 13.238373,4.349156 12.208647,3.2487722 10.877748,3.2487722 z M 10.877748,4.2077759 C 11.695017,4.2077759 12.353138,4.8631063 12.353138,5.6831659 C 12.353138,6.5105294 11.696746,7.1585561 10.877748,7.1585561 C 10.055102,7.1585561 9.3285858,6.5113863 9.3285891,5.6831659 C 9.3285891,4.8622424 10.056825,4.2077759 10.877748,4.2077759 z"
       id="path62526"
       style="fill:#ffffff;fill-opacity:1;fill-rule:nonzero;stroke:none;stroke-width:0.39999998;stroke-miterlimit:4;stroke-dasharray:none;stroke-opacity:1" />
    <path
       d="M 8.2220461,7.6011732 C 6.5797523,7.6011754 5.271266,8.9005202 5.271266,10.551953 L 5.271266,16.601053 C 5.271266,17.391805 5.9020973,17.928904 6.5253473,17.928904 C 7.1485974,17.928904 7.705659,17.391805 7.705659,16.601053 L 7.705659,26.633706 C 7.7056567,27.495022 8.3935029,28.182865 9.2548193,28.182865 C 10.09565,28.182865 10.771385,27.467131 10.803979,26.633706 C 10.804772,26.6134 10.877748,26.654191 10.877748,26.633706 C 10.910072,27.464417 11.586078,28.182865 12.426908,28.182865 C 13.288224,28.182865 13.976068,27.495022 13.976068,26.633706 L 13.976068,16.674822 C 14.040239,17.398179 14.566644,17.928904 15.15638,17.928904 C 15.781825,17.928904 16.414434,17.395787 16.410461,16.601053 L 16.410461,10.625723 C 16.410463,9.0858428 15.168365,7.6011732 13.385911,7.6011732 L 8.2220461,7.6011732 z M 8.2220461,8.4864069 L 13.385911,8.4864069 C 14.642762,8.4864069 15.451458,9.5748175 15.451458,10.625723 L 15.451458,16.601053 C 15.453387,16.98663 15.296663,16.9699 15.15638,16.9699 C 15.016098,16.9699 14.861302,16.986623 14.861302,16.601053 L 14.861302,10.773262 L 14.861302,10.256875 L 14.418684,10.256875 L 13.533451,10.256875 L 13.017064,10.256875 L 13.017064,10.773262 L 13.017064,26.633706 C 13.017064,26.982209 12.775412,27.223862 12.426908,27.223862 C 12.078404,27.223862 11.762982,26.985281 11.762982,26.633706 L 11.762982,17.412518 L 11.762982,16.896131 L 11.320366,16.896131 L 10.361361,16.896131 L 9.9187449,16.896131 L 9.9187449,17.412518 L 9.9187449,26.633706 C 9.9187449,26.982213 9.603327,27.223862 9.2548193,27.223862 C 8.906315,27.223862 8.6646635,26.982209 8.6646635,26.633706 L 8.6646635,10.773262 L 8.6646635,10.256875 L 8.2220461,10.256875 L 7.2630427,10.256875 L 6.8204252,10.256875 L 6.8204252,10.773262 L 6.8204252,16.601053 C 6.8204252,16.975859 6.6722518,16.9699 6.5253473,16.9699 C 6.3784428,16.9699 6.2302694,16.975859 6.2302694,16.601053 L 6.2302694,10.551953 C 6.2302694,9.4001458 7.0965052,8.4864069 8.2220461,8.4864069 z"
       id="path62530"
       style="fill:#ffffff;fill-opacity:1;fill-rule:nonzero;stroke:none;stroke-width:0.39999998;stroke-miterlimit:4;stroke-dasharray:none;stroke-opacity:1" />
    <g
       transform="matrix(2.9507804,0,0,-2.9507804,10.841919,7.6311822)"
       id="g55753"
       style="fill:#000000">
      <path
         d="M 0,0 C 0.364,0 0.662,0.295 0.662,0.662 C 0.662,1.027 0.364,1.324 0,1.324 C -0.365,1.324 -0.662,1.027 -0.662,0.662 C -0.662,0.295 -0.365,0 0,0"
         id="path55755"
         style="fill:#000000;fill-opacity:1;fill-rule:nonzero;stroke:none" />
    </g>
    <g
       transform="matrix(2.9507804,0,0,-2.9507804,8.1879888,26.600898)"
       id="g55757"
       style="fill:#000000">
      <path
         d="M 0,0 C 0,-0.205 0.167,-0.372 0.372,-0.372 C 0.577,-0.372 0.744,-0.205 0.744,0 L 0.744,3.118 L 1.056,3.118 L 1.056,0 C 1.056,-0.205 1.221,-0.372 1.426,-0.372 C 1.631,-0.372 1.798,-0.205 1.798,0 L 1.801,5.375 L 2.109,5.375 L 2.109,3.394 C 2.109,2.994 2.629,2.994 2.627,3.394 L 2.627,5.419 C 2.627,5.858 2.286,6.288 1.771,6.288 L 0.012,6.291 C -0.457,6.291 -0.834,5.906 -0.834,5.431 L -0.834,3.394 C -0.834,2.999 -0.312,2.999 -0.312,3.394 L -0.312,5.375 L 0.003,5.375 L 0,0 z"
         id="path55759"
         style="fill:#000000;fill-opacity:1;fill-rule:nonzero;stroke:none" />
    </g>
  </g>
</svg>
