<?xml version="1.0" encoding="UTF-8" standalone="no"?>
<!-- Created with Inkscape (http://www.inkscape.org/) -->
<svg
   xmlns:svg="http://www.w3.org/2000/svg"
   xmlns="http://www.w3.org/2000/svg"
   version="1.0"
   width="32"
   height="32"
   id="svg26253">
  <defs
     id="defs26255" />
  <g
     id="layer1" />
  <path
     d="M 15.84375,0.75 C 14.254226,0.75 11.6875,1.8371814 11.6875,4.75 C 11.6875,7.6633413 11.71875,12.90625 11.71875,12.90625 L 0.65625,12.90625 L 0.65625,20.6875 C 0.65625,22.848708 2.4495794,30.156571 3.90625,31.4375 L 15.8125,31.4375 L 27.71875,31.4375 C 29.174375,30.156571 30.937499,22.848708 30.9375,20.6875 L 30.9375,12.90625 L 19.90625,12.90625 C 19.90625,12.90625 19.90625,7.6633412 19.90625,4.75 C 19.90625,1.8371815 17.43275,0.75 15.84375,0.75 z M 15.8125,3.34375 C 16.649889,3.3437499 17.25,3.7649388 17.25,5.53125 L 17.25,12.96875 L 14.34375,12.96875 L 14.34375,5.53125 C 14.34375,3.7649388 14.974587,3.34375 15.8125,3.34375 z"
     id="path243412"
     style="fill:#000000;fill-opacity:1;fill-rule:evenodd;stroke:none" />
  <path
     d="M 26.586036,29.027162 L 25.188992,28.998394 L 25.188992,26.223659 L 27.278543,26.231505 C 27.07508,27.993109 26.592835,29.016178 26.586036,29.027162 z"
     id="path243416"
     style="fill:#ffffff;fill-opacity:1;fill-rule:evenodd;stroke:none" />
  <path
     d="M 27.956405,23.553009 L 25.188992,23.524765 L 25.188992,20.752122 L 28.338225,20.750553 C 28.381637,22.538308 27.962681,23.536795 27.956405,23.553009 z"
     id="path243418"
     style="fill:#ffffff;fill-opacity:1;fill-rule:evenodd;stroke:none" />
  <path
     d="M 28.469508,15.543151 L 28.469508,18.273428 L 25.188992,18.273428 L 25.188992,15.543151 L 28.469508,15.543151 z"
     id="path243420"
     style="fill:#ffffff;fill-opacity:1;fill-rule:evenodd;stroke:none" />
  <path
     d="M 22.625042,26.223659 L 22.625042,28.998394 L 19.849261,28.998394 L 19.849261,26.223659 L 22.625042,26.223659 z"
     id="path243422"
     style="fill:#ffffff;fill-opacity:1;fill-rule:evenodd;stroke:none" />
  <path
     d="M 22.625042,20.752122 L 22.625042,23.524765 L 19.849261,23.524765 L 19.849261,20.752122 L 22.625042,20.752122 z"
     id="path243424"
     style="fill:#ffffff;fill-opacity:1;fill-rule:evenodd;stroke:none" />
  <path
     d="M 22.625042,15.543151 L 22.625042,18.317363 L 19.849261,18.317363 L 19.849261,15.543151 L 22.625042,15.543151 z"
     id="path243426"
     style="fill:#ffffff;fill-opacity:1;fill-rule:evenodd;stroke:none" />
  <path
     d="M 17.286358,26.223659 L 17.286358,28.998394 L 14.238072,28.998394 L 14.238072,26.223659 L 17.286358,26.223659 z"
     id="path243428"
     style="fill:#ffffff;fill-opacity:1;fill-rule:evenodd;stroke:none" />
  <path
     d="M 17.286358,20.752122 L 17.286358,23.524765 L 14.238072,23.524765 L 14.238072,20.752122 L 17.286358,20.752122 z"
     id="path243430"
     style="fill:#ffffff;fill-opacity:1;fill-rule:evenodd;stroke:none" />
  <path
     d="M 17.286358,15.543151 L 17.286358,18.317363 L 14.238072,18.317363 L 14.238072,15.543151 L 17.286358,15.543151 z"
     id="path243432"
     style="fill:#ffffff;fill-opacity:1;fill-rule:evenodd;stroke:none" />
  <path
     d="M 11.674122,26.223659 L 11.674122,28.998394 L 8.8988638,28.998394 L 8.8988638,26.223659 L 11.674122,26.223659 z"
     id="path243434"
     style="fill:#ffffff;fill-opacity:1;fill-rule:evenodd;stroke:none" />
  <path
     d="M 11.674122,20.752122 L 11.674122,23.524765 L 8.8988638,23.524765 L 8.8988638,20.752122 L 11.674122,20.752122 z"
     id="path243436"
     style="fill:#ffffff;fill-opacity:1;fill-rule:evenodd;stroke:none" />
  <path
     d="M 11.674122,15.543151 L 11.674122,18.317363 L 8.8988638,18.317363 L 8.8988638,15.543151 L 11.674122,15.543151 z"
     id="path243438"
     style="fill:#ffffff;fill-opacity:1;fill-rule:evenodd;stroke:none" />
  <path
     d="M 6.3359603,26.223659 L 6.3359603,28.998394 L 4.9394394,29.027162 C 4.9394394,29.027162 4.7568979,28.763549 4.6057389,28.304841 C 4.4592873,27.855549 4.3478795,27.114922 4.2458864,26.231505 L 6.3359603,26.223659 z"
     id="path243440"
     style="fill:#ffffff;fill-opacity:1;fill-rule:evenodd;stroke:none" />
  <path
     d="M 6.3359603,20.752122 L 6.3359603,23.524765 L 3.5675015,23.553009 C 3.561225,23.536795 3.1438379,22.536739 3.1872503,20.750553 L 6.3359603,20.752122 z"
     id="path243442"
     style="fill:#ffffff;fill-opacity:1;fill-rule:evenodd;stroke:none" />
  <path
     d="M 6.3359603,15.543151 L 6.3359603,18.273428 L 3.0559669,18.273428 L 3.0559669,15.543151 L 6.3359603,15.543151 z"
     id="path243444"
     style="fill:#ffffff;fill-opacity:1;fill-rule:evenodd;stroke:none" />
</svg>
