<?xml version="1.0" encoding="UTF-8" standalone="no"?>
<!-- Created with Inkscape (http://www.inkscape.org/) -->
<svg
   xmlns:dc="http://purl.org/dc/elements/1.1/"
   xmlns:cc="http://creativecommons.org/ns#"
   xmlns:rdf="http://www.w3.org/1999/02/22-rdf-syntax-ns#"
   xmlns:svg="http://www.w3.org/2000/svg"
   xmlns="http://www.w3.org/2000/svg"
   xmlns:sodipodi="http://sodipodi.sourceforge.net/DTD/sodipodi-0.dtd"
   xmlns:inkscape="http://www.inkscape.org/namespaces/inkscape"
   width="9.4812498"
   height="9.4724998"
   id="svg29542"
   sodipodi:version="0.32"
   inkscape:version="0.46"
   version="1.0"
   sodipodi:docname="supermarket.svg"
   inkscape:output_extension="org.inkscape.output.svg.inkscape">
  <defs
     id="defs29544">
    <inkscape:perspective
       sodipodi:type="inkscape:persp3d"
       inkscape:vp_x="0 : 526.18109 : 1"
       inkscape:vp_y="0 : 1000 : 0"
       inkscape:vp_z="744.09448 : 526.18109 : 1"
       inkscape:persp3d-origin="372.04724 : 350.78739 : 1"
       id="perspective29550" />
  </defs>
  <sodipodi:namedview
     id="base"
     pagecolor="#ffffff"
     bordercolor="#666666"
     borderopacity="1.0"
     gridtolerance="10000"
     guidetolerance="10"
     objecttolerance="10"
     inkscape:pageopacity="0.0"
     inkscape:pageshadow="2"
     inkscape:zoom="37.555645"
     inkscape:cx="6.1775"
     inkscape:cy="6.1774995"
     inkscape:document-units="px"
     inkscape:current-layer="layer1"
     showgrid="false"
     inkscape:window-width="640"
     inkscape:window-height="667"
     inkscape:window-x="0"
     inkscape:window-y="318" />
  <metadata
     id="metadata29547">
    <rdf:RDF>
      <cc:Work
         rdf:about="">
        <dc:format>image/svg+xml</dc:format>
        <dc:type
           rdf:resource="http://purl.org/dc/dcmitype/StillImage" />
      </cc:Work>
    </rdf:RDF>
  </metadata>
  <g
     inkscape:label="Layer 1"
     inkscape:groupmode="layer"
     id="layer1"
     transform="translate(-199.49072,-192.58791)">
    <path
       d="M 208.19197,196.10791 C 208.19197,196.10791 208.08947,198.13166 206.31572,197.96416 C 206.31572,197.96416 206.11822,196.26916 208.19197,196.10791"
       style="fill:#231f20;fill-opacity:1;fill-rule:nonzero;stroke:none"
       id="path5855" />
    <path
       d="M 206.77947,198.74666 C 207.01072,198.51791 207.32947,198.37916 207.68197,198.37916 C 208.39322,198.37916 208.97197,198.95541 208.97197,199.66791 C 208.97197,199.69416 208.97197,199.71666 208.97072,199.74291 L 208.96822,199.74291 C 208.94572,200.02166 208.85697,200.36791 208.64697,200.79791 C 208.64697,200.79791 208.28572,201.48916 207.99447,201.80666 L 207.96822,201.83041 C 207.82822,201.97291 207.63072,202.06041 207.41697,202.06041 C 207.15447,202.06041 206.92072,201.93291 206.78072,201.73541 L 206.77697,201.73541 C 206.63572,201.93291 206.40322,202.06041 206.14072,202.06041 C 205.92447,202.06041 205.72947,201.97291 205.58822,201.83041 L 205.56072,201.80666 C 205.27322,201.48916 204.91072,200.79791 204.91072,200.79791 C 204.70072,200.36791 204.61072,200.01916 204.59197,199.74291 L 204.58697,199.74291 C 204.58322,199.71666 204.58322,199.69416 204.58322,199.66791 C 204.58322,198.95541 205.16197,198.37916 205.87572,198.37916 C 206.22697,198.37916 206.54447,198.51791 206.77822,198.74666"
       style="fill:#231f20;fill-opacity:1;fill-rule:nonzero;stroke:none"
       id="path5857" />
    <path
       d="M 202.54322,192.58791 L 200.97572,192.58791 L 200.97572,193.17166 L 202.54322,193.17166 L 202.54322,192.58791 z"
       style="fill:#231f20;fill-opacity:1;fill-rule:nonzero;stroke:none"
       id="path5859" />
    <path
       d="M 199.49072,194.94166 C 199.49072,194.83166 199.52322,194.73166 199.57947,194.64541 L 200.28447,193.75916 C 200.48697,193.51041 200.69947,193.53916 200.69947,193.53916 L 202.51197,193.53916 C 203.63572,193.64916 203.63697,194.71916 203.63697,194.71916 L 203.63697,201.65791 C 203.63697,201.84041 203.48822,201.98916 203.30572,201.98916 L 199.82697,201.98916 C 199.64322,201.98916 199.49447,201.84041 199.49447,201.65791 L 199.49072,194.94166 z M 199.85822,196.79416 C 199.85822,196.98416 200.12197,197.19416 200.33447,196.95041 L 200.91197,196.19541 C 200.93947,196.16166 200.97322,196.09041 200.97322,196.01291 L 200.97322,194.20416 C 200.97322,193.69791 200.50197,194.11541 200.32447,194.29666 L 199.92322,194.80416 C 199.85822,194.89041 199.85822,194.92166 199.85822,194.96791 L 199.85822,196.79416 z"
       style="fill:#231f20;fill-opacity:1;fill-rule:nonzero;stroke:none"
       id="path5861" />
  </g>
</svg>
