<?xml version="1.0" encoding="UTF-8" standalone="no"?>
<!-- Created with Inkscape (http://www.inkscape.org/) -->
<svg
   xmlns:dc="http://purl.org/dc/elements/1.1/"
   xmlns:cc="http://creativecommons.org/ns#"
   xmlns:rdf="http://www.w3.org/1999/02/22-rdf-syntax-ns#"
   xmlns:svg="http://www.w3.org/2000/svg"
   xmlns="http://www.w3.org/2000/svg"
   xmlns:sodipodi="http://sodipodi.sourceforge.net/DTD/sodipodi-0.dtd"
   xmlns:inkscape="http://www.inkscape.org/namespaces/inkscape"
   width="3.04375"
   height="8.5043602"
   id="svg20322"
   sodipodi:version="0.32"
   inkscape:version="0.46"
   version="1.0"
   sodipodi:docname="telephone.svg"
   inkscape:output_extension="org.inkscape.output.svg.inkscape">
  <defs
     id="defs20324">
    <inkscape:perspective
       sodipodi:type="inkscape:persp3d"
       inkscape:vp_x="0 : 526.18109 : 1"
       inkscape:vp_y="0 : 1000 : 0"
       inkscape:vp_z="744.09448 : 526.18109 : 1"
       inkscape:persp3d-origin="372.04724 : 350.78739 : 1"
       id="perspective20330" />
  </defs>
  <sodipodi:namedview
     id="base"
     pagecolor="#ffffff"
     bordercolor="#666666"
     borderopacity="1.0"
     gridtolerance="10000"
     guidetolerance="10"
     objecttolerance="10"
     inkscape:pageopacity="0.0"
     inkscape:pageshadow="2"
     inkscape:zoom="37.536657"
     inkscape:cx="2.7154414"
     inkscape:cy="6.1806249"
     inkscape:document-units="px"
     inkscape:current-layer="layer1"
     showgrid="false"
     inkscape:window-width="640"
     inkscape:window-height="667"
     inkscape:window-x="0"
     inkscape:window-y="318" />
  <metadata
     id="metadata20327">
    <rdf:RDF>
      <cc:Work
         rdf:about="">
        <dc:format>image/svg+xml</dc:format>
        <dc:type
           rdf:resource="http://purl.org/dc/dcmitype/StillImage" />
      </cc:Work>
    </rdf:RDF>
  </metadata>
  <g
     inkscape:label="Layer 1"
     inkscape:groupmode="layer"
     id="layer1"
     transform="translate(-233.60588,-128.95795)">
    <g
       id="g10293"
       transform="matrix(1.25,0,0,-1.25,235.72713,131.39795)">
      <path
         d="M 0,0 L 0.488,0 C 0.627,0 0.738,0.11 0.738,0.248 L 0.738,1.703 C 0.738,1.841 0.627,1.952 0.488,1.952 L 0,1.952 L 0,0 z"
         style="fill:#231f20;fill-opacity:1;fill-rule:nonzero;stroke:none"
         id="path10295" />
    </g>
    <g
       id="g10297"
       transform="matrix(1.25,0,0,-1.25,235.72713,135.02231)">
      <path
         d="M 0,0 L 0.488,0 C 0.627,0 0.738,-0.111 0.738,-0.249 L 0.738,-1.704 C 0.738,-1.841 0.627,-1.952 0.488,-1.952 L 0,-1.952 L 0,0 z"
         style="fill:#231f20;fill-opacity:1;fill-rule:nonzero;stroke:none"
         id="path10299" />
    </g>
    <g
       id="g10301"
       transform="matrix(1.25,0,0,-1.25,234.99713,133.21069)">
      <path
         d="M 0,0 C -0.004,1.33 0.246,1.449 0.389,1.449 L 0.43,1.449 L 0.43,3.401 L 0.379,3.401 C 0.125,3.401 -1.113,2.943 -1.113,0 C -1.113,-2.943 0.125,-3.401 0.379,-3.401 L 0.43,-3.401 L 0.43,-1.449 L 0.389,-1.449 C 0.246,-1.449 0.004,-1.329 0,0"
         style="fill:#231f20;fill-opacity:1;fill-rule:nonzero;stroke:none"
         id="path10303" />
    </g>
  </g>
</svg>
