<?xml version="1.0" encoding="UTF-8" standalone="no"?>
<!-- Created with Inkscape (http://www.inkscape.org/) -->
<svg
   xmlns:svg="http://www.w3.org/2000/svg"
   xmlns="http://www.w3.org/2000/svg"
   version="1.0"
   width="32"
   height="32"
   id="svg26253">
  <defs
     id="defs26255" />
  <g
     id="layer1">
    <g
       transform="matrix(3.9522928,0,0,-3.9522928,3.7723089,15.408516)"
       id="g43523">
      <path
         d="M 0,0 C -0.162,0 -0.295,-0.133 -0.295,-0.295 C -0.295,-0.457 -0.162,-0.588 0,-0.588 C 0.162,-0.588 0.293,-0.457 0.293,-0.295 C 0.293,-0.133 0.162,0 0,0"
         id="path43525"
         style="fill:#231f20;fill-opacity:1;fill-rule:nonzero;stroke:none" />
    </g>
    <g
       transform="matrix(3.9522928,0,0,-3.9522928,19.932855,5.7052253)"
       id="g43527">
      <path
         d="M 0,0 C 0.352,0 0.639,0.285 0.639,0.639 C 0.639,0.992 0.352,1.279 0,1.279 C -0.354,1.279 -0.641,0.992 -0.641,0.639 C -0.641,0.285 -0.354,0 0,0"
         id="path43529"
         style="fill:#231f20;fill-opacity:1;fill-rule:nonzero;stroke:none" />
    </g>
    <g
       transform="matrix(3.9522928,0,0,-3.9522928,6.4432685,10.853925)"
       id="g43531">
      <path
         d="M 0,0 C -0.068,-0.096 -0.174,-0.158 -0.305,-0.182 C -0.488,-0.213 -0.693,-0.16 -0.865,-0.035 C -1.039,0.088 -1.156,0.264 -1.188,0.447 L -1.195,0.539 C -1.195,0.635 -1.17,0.721 -1.117,0.795 C -0.947,1.033 -0.559,1.049 -0.25,0.83 C 0.057,0.611 0.17,0.238 0,0 M 6.161,-4.395 L 5.122,-3.168 C 5.122,-3.168 4.798,-1.273 4.798,-1.27 C 4.798,-1.268 4.749,-1.055 4.749,-1.055 C 4.751,-1.057 4.618,-0.457 4.517,0.012 C 4.679,-0.082 4.825,-0.166 4.833,-0.17 C 4.841,-0.188 5.384,-1.221 5.384,-1.221 C 5.425,-1.297 5.493,-1.354 5.575,-1.379 C 5.659,-1.404 5.747,-1.396 5.823,-1.355 C 5.899,-1.316 5.956,-1.248 5.981,-1.164 C 6.009,-1.082 6.001,-0.994 5.96,-0.918 L 5.364,0.217 C 5.364,0.217 5.341,0.258 5.31,0.289 C 5.267,0.332 5.173,0.385 5.173,0.385 L 4.017,1.043 C 3.87,1.117 3.708,1.143 3.546,1.107 C 3.479,1.094 3.417,1.068 3.347,1.029 C 3.339,1.027 3.083,0.914 2.935,0.566 L 2.341,-0.629 C 2.341,-0.629 1.437,-0.805 1.405,-0.811 C 1.397,-0.813 1.39,-0.814 1.384,-0.818 L 0.539,-0.221 C 0.35,-0.088 0.326,0.311 0.324,0.326 C 0.301,0.6 0.145,0.857 -0.105,1.035 C -0.332,1.195 -0.605,1.264 -0.855,1.223 C -1.051,1.189 -1.217,1.088 -1.322,0.939 C -1.404,0.824 -1.447,0.686 -1.447,0.537 C -1.447,0.535 -1.436,0.408 -1.436,0.408 C -1.393,0.156 -1.238,-0.078 -1.012,-0.24 C -0.783,-0.402 -0.512,-0.471 -0.262,-0.428 L -0.203,-0.416 C -0.197,-0.412 0.178,-0.297 0.361,-0.422 C 0.361,-0.424 0.993,-0.869 1.161,-0.988 C 1.144,-1.016 1.112,-1.076 1.114,-1.139 C 1.114,-1.158 1.116,-1.178 1.12,-1.197 C 1.153,-1.373 1.325,-1.49 1.501,-1.455 L 2.622,-1.236 C 2.622,-1.236 2.718,-1.207 2.759,-1.178 C 2.812,-1.141 2.851,-1.063 2.851,-1.063 L 3.146,-0.469 C 3.146,-0.469 3.349,-1.428 3.353,-1.445 C 3.329,-1.469 2.433,-2.42 2.433,-2.42 L 2.417,-2.439 C 2.329,-2.52 2.28,-2.625 2.28,-2.736 L 2.28,-4.752 C 2.28,-4.967 2.456,-5.141 2.671,-5.141 C 2.884,-5.141 3.06,-4.967 3.06,-4.752 L 3.06,-3.068 C 3.142,-2.982 3.829,-2.258 4.013,-2.066 C 4.032,-2.18 4.21,-3.201 4.21,-3.201 C 4.226,-3.291 4.269,-3.373 4.333,-3.439 C 4.333,-3.441 5.567,-4.898 5.567,-4.898 C 5.636,-4.977 5.729,-5.025 5.833,-5.035 C 5.937,-5.043 6.036,-5.01 6.116,-4.943 C 6.206,-4.867 6.253,-4.756 6.253,-4.646 C 6.253,-4.557 6.224,-4.469 6.161,-4.395"
         id="path43533"
         style="fill:#231f20;fill-opacity:1;fill-rule:nonzero;stroke:none" />
    </g>
  </g>
</svg>
