<?xml version="1.0" encoding="UTF-8" standalone="no"?>
<!-- Created with Inkscape (http://www.inkscape.org/) -->
<svg
   xmlns:svg="http://www.w3.org/2000/svg"
   xmlns="http://www.w3.org/2000/svg"
   version="1.0"
   width="32"
   height="32"
   id="svg26253">
  <defs
     id="defs26255" />
  <g
     id="layer1">
    <path
       d="M 17.225705,8.5569316 C 20.561744,9.7056499 26.45319,10.464052 30.460263,9.4233816 C 26.687897,21.452353 19.833327,33.977104 9.677872,30.480803 C -0.47706602,26.983985 1.6833721,12.84317 6.1174659,1.0421844 C 8.6356507,4.328077 13.889666,7.4097644 17.225705,8.5569316 z"
       id="path243456"
       style="fill:#000000;fill-opacity:1;fill-rule:evenodd;stroke:none" />
    <path
       d="M 12.6603,20.026536 C 12.949289,20.740479 13.251202,21.171636 13.541225,20.328967 L 16.684433,11.201258 C 16.684433,11.201258 23.622236,12.849891 26.605698,12.401157 C 26.605698,12.401157 24.600352,17.987071 22.91915,20.606065 C 21.237948,23.22506 17.465582,30.373789 10.53605,27.988467 C 4.448671,25.891617 4.77695,19.9371 5.271695,18.384107 C 5.5772272,17.420466 6.4746956,15.72272 8.6154886,16.419603 C 10.75318,17.113383 11.783511,18.41099 12.6603,20.026536 z"
       id="path243458"
       style="fill:#ffffff;fill-opacity:1;fill-rule:evenodd;stroke:none" />
    <path
       d="M 12.467468,22.256249 C 13.908794,22.83371 17.196755,22.817167 18.88261,22.086681 C 18.88261,22.086681 17.997032,24.40945 16.051655,25.540591 C 13.79506,26.856292 9.8696697,27.056878 7.9160216,23.805623 C 6.300475,21.11632 7.0516396,19.407718 7.5830898,17.867649 C 8.9003418,19.756676 10.050611,21.30088 12.467468,22.256249 z"
       id="path243460"
       style="fill:#000000;fill-opacity:1;fill-rule:evenodd;stroke:none" />
    <path
       d="M 8.8098712,9.0630501 C 8.1104042,8.9451798 7.6347873,8.9038218 7.5525882,9.7377023 C 7.4693553,10.571066 7.4657365,12.072878 8.2654966,13.140431 C 9.1376333,14.301556 10.212941,14.754943 11.546219,14.926579 C 12.881565,15.098732 12.711998,14.876433 12.746118,13.821804 C 12.781789,12.768726 12.305655,11.29328 11.516752,10.488867 C 10.729399,9.6834199 9.5062364,9.1798864 8.8098712,9.0630501 z"
       id="path243462"
       style="fill:#ffffff;fill-opacity:1;fill-rule:evenodd;stroke:none" />
    <path
       d="M 23.460423,14.272089 C 24.08286,14.609157 24.484033,14.870229 24.036333,15.576417 C 23.587082,16.283638 22.666866,17.472164 21.378048,17.819054 C 19.974461,18.197996 18.851074,17.892464 17.692534,17.206955 C 16.535027,16.520413 16.803854,16.450621 17.426292,15.598647 C 18.048729,14.746672 19.330827,13.875569 20.449044,13.72668 C 21.564676,13.578826 22.838502,13.934504 23.460423,14.272089 z"
       id="path243464"
       style="fill:#000000;fill-opacity:1;fill-rule:evenodd;stroke:none" />
  </g>
</svg>
