<?xml version="1.0" encoding="UTF-8" standalone="no"?>
<!-- Created with Inkscape (http://www.inkscape.org/) -->
<svg
   xmlns:dc="http://purl.org/dc/elements/1.1/"
   xmlns:cc="http://creativecommons.org/ns#"
   xmlns:rdf="http://www.w3.org/1999/02/22-rdf-syntax-ns#"
   xmlns:svg="http://www.w3.org/2000/svg"
   xmlns="http://www.w3.org/2000/svg"
   xmlns:sodipodi="http://sodipodi.sourceforge.net/DTD/sodipodi-0.dtd"
   xmlns:inkscape="http://www.inkscape.org/namespaces/inkscape"
   version="1.0"
   width="22.02282"
   height="30.9841"
   id="svg26253"
   sodipodi:version="0.32"
   inkscape:version="0.46"
   inkscape:output_extension="org.inkscape.output.svg.inkscape"
   sodipodi:docname="train.svg">
  <metadata
     id="metadata14541">
    <rdf:RDF>
      <cc:Work
         rdf:about="">
        <dc:format>image/svg+xml</dc:format>
        <dc:type
           rdf:resource="http://purl.org/dc/dcmitype/StillImage" />
      </cc:Work>
    </rdf:RDF>
  </metadata>
  <sodipodi:namedview
     inkscape:window-height="667"
     inkscape:window-width="640"
     inkscape:pageshadow="2"
     inkscape:pageopacity="0.0"
     guidetolerance="10.0"
     gridtolerance="10.0"
     objecttolerance="10.0"
     borderopacity="1.0"
     bordercolor="#666666"
     pagecolor="#ffffff"
     id="base"
     showgrid="false"
     inkscape:zoom="14.5"
     inkscape:cx="16"
     inkscape:cy="16"
     inkscape:window-x="1030"
     inkscape:window-y="318"
     inkscape:current-layer="svg26253" />
  <defs
     id="defs26255">
    <inkscape:perspective
       sodipodi:type="inkscape:persp3d"
       inkscape:vp_x="0 : 16 : 1"
       inkscape:vp_y="0 : 1000 : 0"
       inkscape:vp_z="32 : 16 : 1"
       inkscape:persp3d-origin="16 : 10.666667 : 1"
       id="perspective14543" />
  </defs>
  <g
     id="layer1"
     transform="translate(-5.6585709,-0.4741182)">
    <path
       d="M 16.668332,26.705782 L 16.671716,26.705782 L 21.417384,26.705782 L 24.885307,31.458218 L 27.68139,31.458218 L 22.833536,24.657209 C 24.450582,24.413678 26.060954,22.839356 26.060954,20.919318 L 26.060954,6.8664736 C 26.060954,4.8871535 24.275946,3.0659171 21.852016,3.0659171 L 16.688095,3.0593293 L 11.484461,3.0659171 C 9.0605377,3.0659171 7.2788206,4.8871535 7.2788206,6.8664736 L 7.2788206,20.919318 C 7.2788206,22.839356 8.8858948,24.413678 10.503041,24.657209 L 5.6585709,31.458218 L 8.451263,31.458218 L 11.919193,26.705782 L 16.665042,26.705782 L 16.668332,26.705782 z"
       id="path2636"
       style="fill:#000000;fill-rule:evenodd" />
    <path
       d="M 15.120447,2.6543316 C 14.478233,2.6543316 13.954591,2.1669118 13.954591,1.5642249 C 13.954591,0.96153792 14.478327,0.4741182 15.120447,0.4741182 C 15.762746,0.4741182 16.286301,0.96153792 16.286301,1.5642249 C 16.286301,2.1668256 15.762746,2.6543316 15.120447,2.6543316 z"
       id="path2638"
       style="fill:#000000;fill-rule:evenodd" />
    <path
       d="M 18.216217,2.6543316 C 18.858431,2.6543316 19.382072,2.1669118 19.382072,1.5642249 C 19.382072,0.96153792 18.858337,0.4741182 18.216217,0.4741182 C 17.574011,0.4741182 17.050362,0.96153792 17.050362,1.5642249 C 17.050362,2.1668256 17.574011,2.6543316 18.216217,2.6543316 z"
       id="path2640"
       style="fill:#000000;fill-rule:evenodd" />
    <path
       d="M 21.898216,22.608908 C 22.915958,22.608908 23.742506,21.838259 23.742506,20.883089 C 23.742506,19.931483 22.915958,19.160654 21.898216,19.160654 C 20.880653,19.160654 20.053926,19.931483 20.053926,20.883089 C 20.053833,21.838259 20.880653,22.608908 21.898216,22.608908 z"
       id="path2642"
       style="fill:#ffffff;fill-rule:evenodd" />
    <path
       d="M 16.668332,13.482963 L 16.671716,13.482963 L 21.710585,13.482963 C 22.869852,13.482963 23.818254,12.738658 23.808469,11.523399 L 23.808469,8.9940859 C 23.808469,7.9434984 23.080537,7.0246436 21.710585,7.0246436 L 16.671716,7.0246436 L 16.665128,7.0246436 L 11.626266,7.0246436 C 10.256127,7.0246436 9.5282877,7.9434984 9.5282877,8.9940859 L 9.5282877,11.523399 C 9.5184097,12.738658 10.466992,13.482963 11.626266,13.482963 L 16.665128,13.482963 L 16.668332,13.482963 L 16.668332,13.482963 z"
       id="path2644"
       style="fill:#ffffff;fill-rule:evenodd" />
    <path
       d="M 16.668332,6.2671703 L 16.671716,6.2671703 L 18.710225,6.2671703 C 19.095646,6.2671703 19.398451,5.9740561 19.398451,5.6282545 L 19.398451,4.5085066 C 19.398451,4.1659952 19.078994,3.8761784 18.710225,3.8761784 L 16.671716,3.8761784 L 16.668332,3.8761784 L 16.665128,3.8761784 L 14.629823,3.8761784 C 14.260967,3.8761784 13.938119,4.1659952 13.938119,4.5085066 L 13.938119,5.6282545 C 13.938119,5.9740561 14.241204,6.2671703 14.629823,6.2671703 L 16.665128,6.2671703 L 16.668332,6.2671703 z"
       id="path2646"
       style="fill:#ffffff;fill-rule:evenodd" />
    <path
       d="M 11.395638,22.608908 C 10.377982,22.608908 9.5546386,21.838259 9.5546386,20.883089 C 9.5546386,19.931483 10.377982,19.160654 11.395638,19.160654 C 12.416584,19.160654 13.243218,19.931483 13.243218,20.883089 C 13.243311,21.838259 12.41667,22.608908 11.395638,22.608908 z"
       id="path2648"
       style="fill:#ffffff;fill-rule:evenodd" />
  </g>
</svg>
