<?xml version="1.0" encoding="UTF-8" standalone="no"?>
<!-- Created with Inkscape (http://www.inkscape.org/) -->
<svg
   xmlns:svg="http://www.w3.org/2000/svg"
   xmlns="http://www.w3.org/2000/svg"
   version="1.0"
   width="32"
   height="20"
   id="svg26253">
  <defs
     id="defs26255" />
  <g
     id="layer1">
    <path
       d="M 15.994143,11.776427 C 15.994143,11.776427 31.05953,6.7767299 31.05953,6.7767299 C 31.05953,6.7767299 15.994143,1.7802958 15.994143,1.7802958 C 15.994143,1.7802958 0.93539676,6.7767299 0.93539676,6.7767299 C 0.93539676,6.7767299 15.994143,11.776427 15.994143,11.776427 C 15.994143,11.776427 15.994143,11.776427 15.994143,11.776427 z"
       id="path43429"
       style="fill:#000000;fill-opacity:1;fill-rule:nonzero;stroke:#000000;stroke-width:1.5;stroke-linecap:round;stroke-linejoin:round;stroke-miterlimit:4;stroke-dasharray:none;stroke-opacity:1" />
    <path
       d="M 15.994143,6.7767299 C 19.569937,6.7767299 23.738932,10.555512 23.738932,16.318294 C 21.849956,14.430557 21.14738,13.601146 19.271683,14.513494 C 16.789481,15.717796 16.938644,16.417843 15.994143,18.305579 C 15.052949,16.417843 15.202114,15.717796 12.723243,14.513494 C 10.847521,13.601146 10.138307,14.430557 8.2559696,16.318294 C 8.2559696,10.555512 12.421656,6.7767299 15.994143,6.7767299 C 15.994143,6.7767299 15.994143,6.7767299 15.994143,6.7767299 z"
       id="path43433"
       style="fill:#000000;fill-opacity:1;fill-rule:nonzero;stroke:#000000;stroke-width:1.5;stroke-linejoin:round;stroke-miterlimit:4;stroke-dasharray:none;stroke-opacity:1" />
  </g>
</svg>
