<?xml version="1.0" encoding="UTF-8" standalone="no"?>
<!-- Created with Inkscape (http://www.inkscape.org/) -->
<svg
   xmlns:svg="http://www.w3.org/2000/svg"
   xmlns="http://www.w3.org/2000/svg"
   version="1.0"
   width="32"
   height="32"
   id="svg26253">
  <defs
     id="defs26255" />
  <g
     id="layer1">
    <path
       d="M 7.2869897,13.519339 C 10.588793,13.353878 10.600347,7.853491 7.2994678,7.6686201 C 3.9953517,7.8377753 3.9833351,13.340939 7.2869897,13.519339"
       id="path242263"
       style="fill:#000000;fill-opacity:1;fill-rule:evenodd;stroke:none" />
    <path
       d="M 13.297161,13.534591 C 16.598966,13.365433 16.610983,7.8659692 13.30964,7.6843335 C 10.005525,7.8488684 9.993508,13.353878 13.297161,13.534591"
       id="path242267"
       style="fill:#000000;fill-opacity:1;fill-rule:evenodd;stroke:none" />
    <path
       d="M 19.379433,13.547532 C 22.683549,13.378374 22.695104,7.8835317 19.391912,7.6972745 C 16.090106,7.8608849 16.078552,13.372365 19.379433,13.547532"
       id="path242271"
       style="fill:#000000;fill-opacity:1;fill-rule:evenodd;stroke:none" />
    <path
       d="M 25.242634,13.560473 C 28.545825,13.397787 28.55738,7.8900033 25.255574,7.7125262 C 21.953307,7.8747516 21.940367,13.385306 25.242634,13.560473"
       id="path242275"
       style="fill:#000000;fill-opacity:1;fill-rule:evenodd;stroke:none" />
    <path
       d="M 10.204262,19.583587 C 13.506529,19.417665 13.519007,13.91635 10.217203,13.732866 C 6.912624,13.902023 6.9006075,19.403337 10.204262,19.583587"
       id="path242279"
       style="fill:#000000;fill-opacity:1;fill-rule:evenodd;stroke:none" />
    <path
       d="M 16.286533,19.598837 C 19.590187,19.430144 19.602666,13.929291 16.299475,13.748579 C 12.997207,13.913578 12.984728,19.415816 16.286533,19.598837"
       id="path242283"
       style="fill:#000000;fill-opacity:1;fill-rule:evenodd;stroke:none" />
    <path
       d="M 13.121995,25.647833 C 16.4238,25.481911 16.437204,19.979674 13.134474,19.797113 C 9.8317444,19.963497 9.8188034,25.468508 13.121995,25.647833"
       id="path242287"
       style="fill:#000000;fill-opacity:1;fill-rule:evenodd;stroke:none" />
    <path
       d="M 19.204267,25.660774 C 22.508845,25.499936 22.519477,19.98938 19.21721,19.812827 C 15.915404,19.975514 15.902462,25.484223 19.204267,25.660774"
       id="path242291"
       style="fill:#000000;fill-opacity:1;fill-rule:evenodd;stroke:none" />
    <path
       d="M 16.111367,31.637672 C 19.415021,31.476834 19.42935,25.967662 16.127083,25.789723 C 12.822502,25.9501 12.810487,31.458347 16.111367,31.637672"
       id="path242295"
       style="fill:#000000;fill-opacity:1;fill-rule:evenodd;stroke:none" />
    <path
       d="M 22.150195,19.61178 C 25.454311,19.44216 25.467253,13.946855 22.163136,13.761521 C 18.860869,13.929753 18.847928,19.429682 22.150195,19.61178"
       id="path242299"
       style="fill:#000000;fill-opacity:1;fill-rule:evenodd;stroke:none" />
    <path
       d="M 12.606665,1.5734056 C 14.496514,2.7140626 15.907084,4.7120617 16.132166,6.932368 L 16.863332,6.9346788 C 16.476488,4.800338 15.525325,1.6413457 13.701105,0.33985036 L 12.606665,1.5734056"
       id="path242303"
       style="fill:#000000;fill-opacity:1;fill-rule:evenodd;stroke:none" />
  </g>
</svg>
